<svg viewBox="0 0 1920 1080" xmlns="http://www.w3.org/2000/svg"><path d="m1545.21116 659.91064c-2.14743-3.17134-3.93131-6.67337-5.64925-10.01005-2.24643-4.39407-4.559-8.88653-7.20186-11.36424-.06614-.03307-.16514-.09921-.19821-.16534-.85897-.89204-1.48667-1.05738-1.51974-1.12352-.36335.16534-1.35439 1.4542-.66076 3.83271 0 .09921.03307.13147.03307.1976 1.51974 5.88053 6.34309 12.12481 14.1065 18.26909.66076.49603 1.32153.99125 1.94922 1.48647-.29741-.39601-.56176-.79203-.85897-1.12271zm13.41267 20.58146c-.06614-2.1809-.03307-4.29486.06594-6.40882-3.93131-3.1052-7.40006-6.57416-10.27419-10.01005 1.15639 2.60998.85897 5.71519-.99104 8.0937-2.67592 3.33668-7.49927 3.96418-10.93496 1.42033-.59463-.46215-1.15618-.89123-1.75101-1.35419-5.2857-3.6343-13.61088-5.31837-18.69837-2.01475-.89204.49522-2.34564 1.5518-2.34564 2.54304 0 2.14783 3.07234 6.24428 7.56541 8.9196.06594.03387.16514.06614.19821.10001 6.07854 3.86497 13.34653 4.49246 22.26633 4.92155 4.16259.26455 7.4662 3.66737 7.53214 7.82995 0 4.19566-3.23748 7.66461-7.40006 7.92835-9.58036.66137-16.08859 1.42114-18.6653 6.67337-.85897 1.81715-3.23768 6.60723 7.89549 13.51208 3.50182 2.14703 7.76362 3.40282 12.71904 3.7335 7.06978.46215 14.50292-1.32193 21.77071-4.9893-5.35184-13.01605-8.52318-26.89107-8.95267-40.89836zm184.50681 19.59021c-3.79904-3.1052-9.87778-2.41157-18.36809-1.02351-2.84106.49522-5.61619-.66137-7.30106-2.74226-.8259-.92511-1.38746-2.04863-1.65181-3.30361-.69363-3.13908.56176-6.24428 3.0064-8.02836.75977-.59442 1.58567-1.02351 2.54385-1.28805 7.66421-2.14703 14.04036-4.19566 18.92965-8.32517.59463-.46215 1.12312-.95818 1.65181-1.48647.06614-.03307.099-.09921.16514-.13227 3.79924-3.66656 5.84746-8.29211 5.38491-10.40606-.26435-.99125-1.94922-1.65181-3.07234-2.04863-2.2795-.79284-4.92235-.69363-7.53234.06614-3.76597 1.05738-7.49907 3.40282-10.00985 6.14508-.46255.59442-.99104 1.18885-1.4536 1.78327-1.38746 1.61955-3.30361 2.54385-5.25284 2.74226-1.98209.16534-3.99724-.39601-5.64905-1.71794-2.31257-1.94862-3.36975-4.82315-2.84126-7.59767-3.96418 7.86222-10.27419 16.35273-18.6653 22.56314-1.18925 12.71924-1.05718 23.25758-.03307 31.84649.19821.42989.36335.92592.49562 1.32193 2.08129.92511 4.19545 1.75101 6.24368 2.51078 4.62514 1.71794 9.18415 2.77452 13.61088 3.17134 5.25284.49522 10.2744.06614 14.89934-1.32112 4.79028-1.4534 8.65545-3.6343 11.56265-6.50883 9.28315-9.21641 5.88053-13.37899 4.59207-14.96467-.36335-.46296-.75977-.89204-1.25539-1.25579zm-20.05297-67.52569c-.03307 0-.06594.03307-.13207.06614-.23128.13227-.66076.52829-1.18925 1.35419-.03307.06614-.09921.16534-.16534.23148-2.04823 2.97374-3.23748 7.89528-4.4598 12.6531-.92491 3.66656-1.88308 7.43313-3.27055 11.00049-.19821.42989-.36335.89204-.56156 1.32193.49542-.6283 1.02411-1.25579 1.58567-1.85022 3.30361-4.19566 5.78133-8.22597 7.40006-11.99254 1.38746-3.2036 2.14743-6.24348 2.21337-9.0188v-.1976c.09921-2.47771-1.15618-3.50203-1.42053-3.56816z" fill="#fff"/><path d="m1604.83082 672.86701c-18.46533 12.81322-42.06344-1.49749-53.12589-17.48429-4.85366-6.98289-7.98928-17.05173-14.01448-22.61868-8.39924-8.30527-18.20827.20148-15.3015 10.46855 2.51113 9.812 10.91105 18.11644 18.83718 24.03371-7.47037-6.31223-20.52268-9.38292-29.2703-3.79794-12.30455 7.47126-3.75303 19.63893 5.28398 24.99237 7.98818 5.06448 16.93232 5.69997 26.10586 6.14068-9.4625.61226-20.43085 1.32721-25.19094 11.05213-5.11053 10.36849 2.25479 18.405 10.79331 23.69549 4.90625 3.04472 10.63076 4.51426 16.35892 4.8783 11.57864.74132 22.61882-3.16893 32.19259-9.48319 8.11208-5.35102 16.33964-11.42303 21.61786-19.74781 4.37932-7.39222 9.18338-20.75083 5.27249-28.95004l.44091-3.1793z" fill="#e82429"/><path d="m1726.03656 765.2325s-53.82699 5.85361-39.20116-94.7154c14.62583-100.56957-122.71657-62.04451-120.34732 9.70834 2.36994 71.75271 79.43608 138.82352 159.54848 85.00707z" fill="#fff"/><path d="m1719.996 764.95781c-13.6275-1.993-44.70043-15.09071-33.1606-94.44072 11.49886-79.06543-70.92549-72.15798-105.55126-30.72594 1.05035-.5973 2.14713-1.11538 3.30073-1.53747 9.67331-3.53548 11.4823 6.53418 11.61041 13.78483 1.17604-4.30112 5.70325-7.98419 9.13489-10.55473 7.71916-5.78104 18.9638-8.36317 28.29478-5.43037 5.40498 1.69951 10.88033 6.75732 13.03172 11.91654 4.22167 10.12432 2.82909 23.38601 1.30566 33.97323-2.3859 16.59422-5.82277 33.18259-5.03042 50.05771.5365 11.41861 3.17863 23.66094 9.53291 33.33488 3.58748 5.46263 11.27293 10.44046 17.43046 12.26392 11.6936 3.45494 24.65097-.92216 35.47877-5.35384 4.90877-2.00902 9.92358-4.39736 14.62195-7.28805z" fill="#e82429"/><path d="m1717.61975 766.84566c-.33482-3.45536-2.09105-6.79197-3.53196-9.88979-1.57332-3.38547-3.27718-6.83511-4.00799-10.52082-.59549-3.00561-.87336-6.80535 1.35224-9.26572 2.35967-2.61131 4.60151.50915 5.41059 2.75844 1.09585 3.04762 1.44959 6.45984 1.44102 9.68185-.00894 3.30284-.39577 6.59026-.44713 9.89306.05364-3.45607 1.48324-7.15198 2.85005-10.27738.63702-1.45912 1.90878-4.4097 3.84628-4.5322 3.89525-.24242 1.09687 7.51211.56289 8.98712-1.26863 3.50195-2.44027 7.02778-3.54809 10.5857 1.61766-1.30798 2.8077-3.14478 4.24815-4.63525 1.18874-1.22897 2.37085-3.04427 4.19371-3.38712 1.38983-.2586 2.2417.6433 2.21437 2.00691-.05415 2.90209-2.73556 4.78798-4.94129 6.18592-2.79388 1.77308-5.61869 3.57047-8.6942 4.8224l-.94865-2.41313z" fill="#e82429"/><path d="m1586.25729 682.88417 22.25602 1.93117-12.797 20.23336z" fill="#ef6623"/><path d="m1688.41258 733.90051s-28.88451-8.26409-29.8038-47.9548l27.27639 34.63635s.00973 4.16469 2.52742 13.31846z" fill="#ad2126"/><path d="m1658.69309 683.93643c20.87471 8.3312 40.64931-10.91963 47.83361-28.9853 3.15845-7.89398 3.94848-18.41103 8.56859-25.18989 6.31546-9.98113 17.78878-3.89943 17.26387 6.75889-.24089 10.12533-6.55635 20.10632-12.95118 27.65302 5.86102-7.82989 17.88911-13.75689 27.66701-10.28375 13.67056 4.51372 8.07473 18.29349.47174 25.54275-6.64267 6.73093-15.21591 9.36302-24.05562 11.854 9.35681-1.53327 20.20596-3.30098 27.03062 5.10038 7.31417 8.95648 1.9416 18.44327-5.18642 25.51882-4.09873 4.07006-9.34554 6.78706-14.84337 8.43161-11.11525 3.32682-22.75369 1.99929-33.50038-2.00094-9.10668-3.38784-18.49122-7.45548-25.50436-14.37928-5.93119-6.21877-14.63702-21.02382-12.67003-29.89208l-.12407-.12821z" fill="#e82429"/><path d="m1591.28515 674.39146c-.65035-.06282-1.2309-.51339-1.425-1.18208-1.02715-3.52679-3.7184-9.24176-6.56658-9.5492l-.02563-.00248c-1.83571-.17731-4.11007 2.04435-6.4126 6.26486-.43575.7954-1.43461 1.09342-2.23642.65705-.79861-.43606-1.09311-1.43781-.65705-2.23642 3.10048-5.68585 6.24626-8.29221 9.61653-7.96667l.04806.00464c5.97094.6511 9.06552 10.76064 9.40056 11.91181.2518.87475-.25018 1.78663-1.12523 2.04163-.20605.0577-.4148.07634-.61663.05685z" fill="#808083"/><path d="m1606.02327 675.13273c-.14096-.01362-.28007-.04645-.41762-.09531-.85491-.32186-1.28726-1.26902-.96891-2.12103 2.28782-6.11034 5.05684-9.13464 8.47271-9.24771 5.92283-.22337 10.46297 9.38231 10.9557 10.47434.3759.82853.00674 1.80498-.82469 2.17737-.8244.3666-1.80787.00322-2.17737-.82469-1.51623-3.35091-5.11207-8.63912-7.84836-8.53156-1.84899.06069-3.79695 2.5855-5.48805 7.10435-.26949.71446-.97938 1.13416-1.70341 1.06422z" fill="#808083"/><path d="m1883.72562 888.21315c-.65303.30848-1.18509.87306-1.42986 1.61518-.23094.70423-.15851 1.42174.13181 2.03632.30848.65303.87329 1.18498 1.61518 1.42967 1.43354.48176 2.99032-.30056 3.45321-1.74086.23699-.69142.17738-1.41498-.11297-2.02964-.30844-.65295-.87294-1.18505-1.61515-1.42959-.69133-.23722-1.42764-.1714-2.04222.11892zm-12.4006-4.36912c-.6274.29637-1.13988.83602-1.38999 1.53364-.26939.7224-.22299 1.48355.07944 2.12377l.00605.01282c.29637.6274.82989 1.1271 1.51446 1.38319 1.42607.53232 3.00734-.19896 3.5329-1.60616.07411-.20736.1297-.42155.1536-.63644.06852-.51787-.02136-1.0392-.23909-1.50014-.29637-.6274-.82993-1.12717-1.53368-1.38988-.70946-.27559-1.48347-.22322-2.12368.07921zm-12.23922-4.78996c-.60145.28411-1.09395.7673-1.36189 1.4264-.30139.72184-.26851 1.52073.04598 2.1865l.01816.03845c.27824.58903.76726 1.09407 1.42651 1.36212 1.39969.57604 2.99236-.09792 3.56813-1.49758.30815-.74071.27531-1.53953-.03922-2.20538-.2843-.60184-.78644-1.10068-1.44538-1.36888-.74075-.30784-1.54645-.25617-2.2123.05836zm-12.0647-5.217c-.57613.27215-1.04902.73049-1.33511 1.35114-.34629.75872-.3081 1.60205.02456 2.30627.26613.56339.72421 1.03612 1.34501 1.32233 1.37335.61984 3.00876.00398 3.62864-1.36949.34629-.75872.3081-1.60205-.01854-2.29353-.27215-.57613-.73023-1.04886-1.35102-1.33507-.7586-.34644-1.60204-.3083-2.29352.01835zm-11.89116-5.61213c-.55081.26019-1.0038.69346-1.29525 1.2696-.38474.77688-.36008 1.65795-.02136 2.37499.26008.55058.69327 1.0038 1.26956 1.29536 1.36584.67032 2.9998.11776 3.67024-1.24824.38474-.77688.36008-1.65795.01531-2.38781-.25403-.53776-.67467-.99681-1.26382-1.2824-.77673-.38481-1.65756-.36026-2.37468-.02151zm-11.71192-5.99437c-.51205.24188-.95828.65628-1.24929 1.20096-.42319.79505-.41814 1.70096-.06127 2.45645.24192.51213.64341.96464 1.18833 1.25535 1.33348.70138 3.00444.19395 3.70582-1.13973.42319-.79505.41779-1.70089.0549-2.46912-.24195-.5122-.63736-.95182-1.182-1.24276-.79485-.42318-1.70093-.41807-2.45649-.06115zm-11.52675-6.33248c-.48641.22977-.91943.60657-1.20938 1.1195-.44882.80716-.4573 1.75081-.08835 2.53186.22984.48657.60673.91936 1.11934 1.20965 1.30745.74503 2.98372.28202 3.74171-1.03136.45456-.79419.46301-1.73793.09406-2.51897-.2359-.49939-.60638-.91943-1.11934-1.20965-.80051-.46754-1.75683-.47004-2.53803-.10102zm-11.31622-6.68247c-.46078.21766-.87418.56962-1.16378 1.05092-.50583.81841-.52784 1.79981-.14678 2.60649.21774.46094.5822.86824 1.05065 1.16381 1.29389.78269 2.98156.37701 3.76444-.91688.50583-.81841.52784-1.79981.14678-2.60649-.22379-.47375-.5822-.86824-1.05065-1.16381-.81262-.49317-1.79414-.51503-2.60066-.13405zm-11.13812-7.00156c-.43546.2057-.82897.53258-1.11782.98228-.54428.83657-.57305 1.83684-.17992 2.66908.21172.4482.53844.84198.98802 1.13078 1.26149.81367 2.96052.46523 3.78115-.81513.53752-.8177.57305-1.83684.17992-2.66908-.20566-.43538-.53238-.82916-.98228-1.11782-.81766-.53783-1.83692-.57321-2.66907-.18011zm-10.93506-7.30099c-.42233.1995-.80943.50758-1.08471.91961-.57628.83601-.6183 1.8738-.21302 2.73174.19957.42249.50172.79662.91961 1.08471 1.24762.85148 2.94629.53466 3.81642-.70647.56346-.82996.62432-1.86106.21908-2.71893-.19961-.42256-.52031-.8036-.9382-1.0917-.82328-.58211-1.87419-.61811-2.71916-.21897zm-10.72602-7.58777c-.40983.19359-.77699.47668-1.05837.87581-.60762.83524-.66953 1.8981-.25218 2.7816.1875.39693.47077.7643.86374 1.03282 1.22159.89513 2.93808.61683 3.82062-.59881.60766-.83516.68203-1.904.26469-2.7875-.1875-.39693-.48328-.75839-.86948-1.04578-.83539-.60774-1.89841-.66938-2.76901-.25813zm-10.55508-7.85644c-.38419.18148-.73886.45866-1.00667.82013-.65216.8405-.72728 1.94096-.30388 2.83728.18145.38411.45234.72607.81998 1.00655 1.20201.92006 2.92381.68619 3.84378-.51579.65244-.84073.72756-1.94118.30416-2.8375-.18145-.38411-.45867-.73866-.81998-1.00655-.8407-.65217-1.94115-.72748-2.83739-.30412zm-10.35952-8.1054c-.37138.17543-.70041.4405-.96751.77028-.68381.83987-.77883 1.9654-.34335 2.88727.16937.35856.43449.68747.77013.9674 1.18274.94483 2.90989.75547 3.85475-.42701.6778-.85261.77281-1.97814.34335-2.88727-.17539-.3713-.44054-.70029-.77044-.96725-.85249-.67795-1.97787-.77284-2.88692-.34342zm-10.15826-8.34146c-.34574.16332-.6677.40937-.92836.72043-.7155.83917-.82978 1.98947-.38825 2.92416.16937.35856.4096.66797.72063.92817 1.15004.97596 2.88249.83102 3.85228-.33187.72832-.84522.83013-1.98954.38251-2.93713-.16328-.34566-.39069-.66113-.70176-.9214-.85175-.70956-2.00236-.82388-2.93705-.38236zm-9.98198-8.56564c-.32011.15121-.63561.37854-.8892.67058-.74113.85127-.87499 2.02651-.42136 2.98683.15121.32011.37256.62276.66476.87627 1.13042 1.00081 2.88103.89432 3.87575-.24899.74719-.83846.86249-2.0206.41491-2.96811-.15727-.33292-.38467-.64839-.67687-.9019-.83822-.7473-2.00767-.86831-2.96799-.41467z" fill="#fff"/><g fill="#231f20"><path d="m94.91737 890.37303-19.83378 36.26347c-7.47863 13.67453-18.72136 24.91726-32.39589 32.39589l-36.26347 19.83378 36.26347 19.83378c13.67453 7.47863 24.91726 18.72136 32.39589 32.39589l19.83378 36.26347 19.83378-36.26347c7.47845-13.67453 18.72136-24.91726 32.39589-32.39589l36.26347-19.83378-36.26347-19.83378c-13.67453-7.47863-24.91743-18.72136-32.39589-32.39589z" opacity=".2"/><path d="m328.03636 898.59371-14.47099 26.45833c-5.45651 9.97712-13.65936 18.17997-23.63648 23.63648l-26.45832 14.47099 26.45832 14.47099c9.97712 5.45651 18.17997 13.65936 23.63648 23.63648l14.47099 26.45833 14.47099-26.45833c5.45638-9.97712 13.65936-18.17997 23.63648-23.63648l26.45832-14.47099-26.45832-14.47099c-9.97712-5.45651-18.1801-13.65936-23.63648-23.63648z" opacity=".2"/><path d="m109.50848 699.71172-11.60506 21.21834c-4.37586 8.00118-10.95417 14.57949-18.95535 18.95535l-21.21834 11.60506 21.21834 11.60506c8.00118 4.37586 14.57949 10.95417 18.95535 18.95535l11.60506 21.21834 11.60506-21.21834c4.37576-8.00118 10.95417-14.57949 18.95535-18.95535l21.21834-11.60506-21.21834-11.60506c-8.00118-4.37586-14.57959-10.95417-18.95535-18.95535z" opacity=".2"/><path d="m1620.01007 1001.53606 2.85033-1.16154c-10.27042-25.17277-11.83033-60.84494-12.06609-70.72549 5.47553 3.09283 11.21244 6.30838 17.16378 9.61344 1.16491 3.02823 7.97872 20.10951 21.6244 42.53892 9.87973 16.23917 23.33913 35.27713 40.82396 53.80863l2.2388-2.11285c-36.40278-38.58407-55.15153-79.30982-60.40996-91.86439 15.6037 8.62727 32.56666 17.79726 50.10748 26.94251l61.9606 68.944 2.28994-2.05956-56.49488-62.86215c44.11992 22.75515 91.12182 44.83652 128.8997 57.43682l.97341-2.9197c-32.799-10.9404-72.59935-29.06648-111.41024-48.56594 9.35003-3.3197 38.36043-11.773 77.65884-5.71179l.47006-3.04523c-44.87654-6.92054-76.6988 4.79588-81.86453 6.87479-19.48495-9.84919-38.65423-19.99851-56.49147-29.70899 9.28568-4.17815 39.11673-17.0833 54.83688-17.84998l-.14962-3.07647c-18.03662.88145-52.3846 16.45013-58.07185 19.08007-11.76687-6.42946-22.91264-12.64247-33.13902-18.42188 5.25386-4.88116 23.77338-21.43512 50.21996-37.86852l-1.62421-2.61579c-27.9893 17.39149-47.20123 34.93912-51.40348 38.89537-5.86324-3.32258-11.40444-6.49073-16.56299-9.46079 19.71412-41.74068 110.59761-50.03964 110.59761-50.03964-10.63851 23.20896-55.47657 50.98495-55.47657 50.98495 25.78503-15.82351 93.50367-2.14053 93.50367-2.14053-10.66033 13.25477-44.07404 28.06008-44.07404 28.06008 43.12874-5.16329 120.06674 29.63067 120.06674 29.63067-20.23587 11.36143-47.77895 14.59171-47.77895 14.59171 26.95467 7.79726 80.23485 50.7289 80.23485 50.7289-32.1346 11.55593-101.21004-20.33026-101.21004-20.33026 11.25133 11.93579 22.78168 39.36891 22.78168 39.36891-29.19341-2.11079-75.89025-38.88524-75.89025-38.88524 8.32181 9.84419 19.59116 36.98691 19.59116 36.98691-55.91662-9.06624-83.29997-65.82201-83.29997-65.82201 4.54664 13.23687 2.17485 42.13987 2.17485 42.13987-58.29518-45.38185-44.66557-104.0155-42.35174-112.37501 5.10689 2.93914 10.58293 6.06896 16.37231 9.34886.08477 6.32561 1.0736 46.06675 12.32888 73.64833z" opacity=".2"/><path d="m1455.4349 964.12672.2288-2.26551c-20.01214-2.01268-43.86726-13.35755-50.40665-16.62818 3.91928-2.50666 8.00936-5.14161 12.23227-7.88569 2.38294.28826 15.90859 1.7555 35.29764.61132 14.03794-.82846 31.14586-3.02641 49.31803-8.03083l-.60491-2.19556c-37.8352 10.41826-70.95106 8.55596-80.97905 7.64118 11.04699-7.20787 22.91982-15.11601 34.97678-23.41041l66.53632-16.59911-.55236-2.21051-60.6669 15.13489c30.16467-20.94847 60.8879-44.01408 82.21739-64.33734l-1.57084-1.6482c-18.51888 17.64453-44.1609 37.37434-70.35756 55.98142 1.07115-7.26159 5.60163-29.15207 23.18436-52.73564l-1.82736-1.36273c-20.07781 26.93144-23.45022 51.79072-23.882 55.88749-13.19089 9.32103-26.46852 18.33172-38.99765 26.62393.48779-7.51708 2.39309-31.48698 7.34079-42.02702l-2.06256-.96856c-5.67561 12.09381-7.40571 39.93907-7.65812 44.56768-8.28067 5.46201-16.20459 10.5931-23.52644 15.27359-1.36916-5.12566-5.76933-22.96735-7.3431-45.94817l-2.27258.15488c1.66523 24.32119 6.47484 42.95984 7.604 47.07761-4.20382 2.68042-8.19509 5.20389-11.92426 7.54594-20.44752-27.35245 5.62975-89.62814 5.62975-89.62814 11.48137 14.99755 14.09366 53.93007 14.09366 53.93007-1.40446-22.33706 31.01046-61.85358 31.01046-61.85358 4.96799 11.56158 3.06279 38.53163 3.06279 38.53163 11.57432-29.97752 60.98238-68.20228 60.98238-68.20228.41156 17.16366-7.02396 36.28478-7.02396 36.28478 14.43889-14.91427 60.96546-34.85626 60.96546-34.85626-3.58556 25.00778-48.36791 59.10164-48.36791 59.10164 11.70077-3.21651 33.62693-1.24381 33.62693-1.24381-11.49833 18.34846-51.71885 36.12189-51.71885 36.12189 9.31835-2.02682 30.96424.0158 30.96424.0158-25.30681 33.40324-71.89234 31.6281-71.89234 31.6281 10.22721 1.61648 28.29539 13.18474 28.29539 13.18474-49.86622 22.37039-83.46352-6.86067-88.12509-11.27044 3.69105-2.31899 7.63468-4.81316 11.78502-7.46011 4.16364 2.13713 30.48019 15.26559 52.40804 17.46951z" opacity=".2"/></g><circle cx="929.08746" cy="543.70002" fill="#fff" opacity=".2" r="528.59989"/><path d="m1469.16439 382.76259c-.22998-.77997-.47021-1.56995-.7002-2.34998-.23975-.77997-.46973-1.56-.71973-2.34003-3.57031-11.64996-7.55029-23.18994-11.9502-34.60999-.22998-.62-.46973-1.23999-.70996-1.84998-1.87012-4.82001-3.82031-9.62-5.83984-14.39001-5.68018-13.44-11.89014-26.58997-18.62012-39.44-.31006-.59998-.62012-1.19-.93018-1.78998-.31006-.58002-.61963-1.17004-.93994-1.75-24.52979-46.02002-55.68994-88.04004-93.00977-125.35004-48.63037-48.63995-105.27002-86.82996-168.34033-113.5-65.29004-27.62-134.6499-41.62006-206.14014-41.62006-71.5 0-140.84961 14.00006-206.1499 41.62006-55.2998 23.39001-105.65967 55.63-150.00977 96.02002-.93994.84998-1.87012 1.70001-2.80029 2.58002-.17969.14996-.35986.31-.54004.47998-.95996.89001-1.90967 1.78003-2.85986 2.67999-2.31006 2.16003-4.60986 4.35004-6.87988 6.57001-1.76025 1.71002-3.5 3.42999-5.23975 5.16998-.22021.22003-.43018.42999-.64014.65002-7.06006 7.07001-13.89014 14.31-20.49023 21.71997-1.7998 2.01001-3.56982 4.03003-5.32959 6.06-1.55029 1.78003-3.08008 3.58002-4.59033 5.38-.93994 1.11005-1.87988 2.23004-2.7998 3.35004-32.81006 39.60999-59.51025 83.56-79.6499 131.16998-27.62012 65.29999-41.62012 134.65002-41.62012 206.15002 0 71.48999 14 140.84998 41.62012 206.13995 26.66992 63.07001 64.85986 119.71002 113.5 168.34003 48.62988 48.64001 105.26953 86.83002 168.32959 113.5 65.30029 27.62 134.6499 41.62 206.1499 41.62 71.49023 0 140.8501-14 206.14014-41.62 63.07031-26.66998 119.70996-64.85999 168.34033-113.5 48.63965-48.63 86.83008-105.27002 113.5-168.34003 27.61963-65.28998 41.61963-134.64996 41.61963-206.13995 0-51.56-7.27979-102-21.69971-150.61005z" fill="#fff" opacity=".2"/><path d="m1397.95271 543.70302c0 17.17999-.98999 34.13007-2.91998 50.79999-1.76001 15.23999-4.31 30.25-7.60004 44.96997-.15997.72009-.32001 1.44006-.47998 2.16003-1.25 5.44006-2.59003 10.83997-4.03003 16.20007-.39996 1.45996-.79999 2.91992-1.21997 4.36987-2.76001 9.88013-5.87 19.61011-9.31 29.19006-47.88 133.54004-158.85004 237.03003-296.97998 274.55005-21.99005 5.96997-44.68005 10.27991-67.90002 12.75-6.13.66003-12.28003 1.18994-18.47998 1.57996-.46002.04004-.92004.07007-1.38.09009-3.47003.21997-6.95001.38989-10.45001.5199-2.41998.09998-4.85004.17004-7.28003.22009-3.14996.06995-6.31.09985-9.46997.09985-2.62 0-5.22998-.0199-7.83002-.07983-5.38-.09009-10.73999-.29004-16.06995-.57007-7.83002-.42004-15.60004-1.05005-23.31006-1.88-.25995-.03003-.51996-.05994-.78998-.08997-7.17999-.78003-14.29999-1.72998-21.37-2.87012-.47998-.06995-.95001-.13989-1.42999-.22998-9.75-1.57996-19.39001-3.47998-28.91003-5.69995-.46997-.10999-.94995-.21997-1.42999-.33997-.51996-.12-1.04999-.25-1.57996-.38-5.21002-1.25-10.39001-2.6001-15.53003-4.04004-108.59998-30.3999-200.13-101.66992-256.95001-196.17993-4.35999-7.23999-8.51001-14.62012-12.44-22.13013-.50995-.95996-1.01996-1.92993-1.50995-2.8999-1.11005-2.15002-2.20001-4.31006-3.27002-6.47998-3.40002-6.87012-6.62-13.84009-9.65002-20.91003-.95996-2.20007-1.89001-4.41003-2.79999-6.63-6.15002-14.96997-11.48999-30.35999-15.96997-46.10999-3.17004-11.13-5.91003-22.44006-8.19-33.91003-5.56-27.82996-8.47003-56.60999-8.47003-86.07001v-.37c.14001-172.97998 100.67999-322.47998 246.5-393.33997 21.72998-10.57001 44.46002-19.38 68.02002-26.26001 2.27997-.66998 4.56-1.32001 6.85999-1.95001 22.5-6.17999 45.72998-10.60999 69.53003-13.12 15.31-1.63 30.84998-2.46002 46.58997-2.46002 241.62 0 437.5 195.88 437.5 437.5z" fill="#003d5b"/><path d="m731.26194 619.02323h70.32751v10.05544h-70.32751z" fill="#bbd5d1" transform="matrix(.00226823 -.99999743 .99999743 .00226823 140.63795 1389.05921)"/><path d="m785.76175 545.05944 11.11709 72.76077-30.39762-18.24148-30.48006 18.1034 5.40572-39.78558 25.14908-11.27052-24.3635 5.42678 9.50222-69.88212 15.05556-21.19741-14.13144 14.3697 12.02813-88.54869 20.02562 131.0845-18.03501-7.21904z" fill="#bbd5d1"/><path d="m674.27352 575.84574h35.16376v5.02773h-35.16376z" fill="#bbd5d1" transform="matrix(.00226823 -.99999743 .99999743 .00226823 111.92802 1268.90139)"/><path d="m701.53099 538.85631 5.55095 36.38792-15.19879-9.12074-15.24003 9.0517 2.71042-19.89279 12.56699-5.63526-12.18177 2.71339 4.75868-34.94102 7.52022-10.59874-7.05818 7.19244 6.00653-44.28192 10.01281 65.53465-9.01752-3.59436z" fill="#bbd5d1"/><path d="m954.24052 649.97897c-50.28185 42.06137-106.5688 67.67812-167.63365 76.62588-2.06027.31338-4.13562.59636-6.21088.84912-5.45339.71455-10.96696 1.26235-16.4954 1.689-7.8307.60314-15.29734.93453-22.33915.91855-3.06929.0637-6.0728.05689-9.0105-.02044-3.10439-.03731-6.22375-.15041-9.16132-.29336l-2.51355-.14199c-2.66493-.17265-5.20868-.34498-7.64637-.54738l-2.54361-.23292c-12.11498-.9747-24.12957-2.94179-35.92283-5.88153l-5.12847 17.7066-5.15877 17.70653c1.19551.38131 21.67187 6.18237 54.36299 8.07379.86308.04739 1.74124.12508 2.61958.12707 2.55898.14209 5.17863.23889 7.85886.33583l2.55929.0058 9.37395.02126c2.93793-.01353 5.96683-.07732 9.0867-.19142 4.7403-.1407 9.60199-.37197 14.61541-.7392 6.24036-.50073 12.92011-1.09132 19.87313-1.98418 2.09049-.28299 4.21127-.56592 6.37757-.89417 46.85531-6.89014 106.63881-25.09363 166.63242-69.17739 6.69463-4.91158 13.36971-10.14629 20.02542-15.70409l-23.62081-28.25137z" fill="#6ecdea"/><path d="m621.27397 736.96686c8.26703-12.70206 8.62317-76.24452-13.98175-64.98339-17.10308 9.21408-.80964 49.83633 3.97671 62.77999l-1.83394.67733c-25.96294 9.54226-45.83529 17.85653-67.07768 35.98088-5.41678 4.60655-40.10211 33.99769-19.56304 38.85999 7.2803 1.69745 15.75824-3.84106 21.59656-7.35634 7.50489-4.6434 14.69515-9.77712 21.52388-15.36753 10.84743-8.65275 21.24198-17.94263 31.30373-27.38467-13.65165 13.24868-21.99132 31.02943-23.44997 49.99697-.43879 6.5109-1.58024 22.3638 5.90857 25.60642s14.1337-8.69077 16.35661-13.94057c3.06033-7.24689 4.04766-15.24061 4.97388-22.99212 1.77451-14.53405 1.48974-29.19386 1.008-43.80869 2.85205 11.13715 10.98665 50.13567 25.89981 31.63353 7.74501-9.56847.9543-26.81749-3.09706-36.65498l-3.54432-13.04681z" fill="#e63d31"/><path d="m710.19503 791.777-14.16749-103.26727-57.58947 5.65431 8.31982 117.57996z" fill="#1c75bc"/><path d="m657.07518 779.70877h38.05621v5.90609h-38.05621z" fill="#27aae1" transform="matrix(.96995682 -.24327712 .24327712 .96995682 -170.09145 187.99415)"/><path d="m656.42768 761.10926h36.90528v5.90605h-36.90528z" fill="#27aae1" transform="matrix(.97759979 -.21047244 .21047244 .97759979 -145.69661 159.15888)"/><path d="m657.52669 739.72646h34.96612v5.8957h-34.96612z" fill="#27aae1" transform="matrix(.98214871 -.18810612 .18810612 .98214871 -127.6518 140.23118)"/><path d="m654.77416 724.37518h32.68019v5.90605h-32.68019z" fill="#27aae1" transform="matrix(.98631428 -.16487615 .16487615 .98631428 -110.73441 120.60477)"/><path d="m654.19438 707.28517h32.18044v5.90605h-32.18044z" fill="#27aae1" transform="matrix(.99392251 -.11008196 .11008196 .99392251 -74.11078 78.10272)"/><path d="m783.14083 744.30494c2.80352-4.11732 4.24886-9.02389 4.0299-14.01708-.04385-.78924-.17512-1.57742-.30666-2.36559-.08743-.43847-.17512-.87587-.30666-1.31434v-.04385c-.91971.13154-1.88354.26308-2.8471.39462-.04385.04385-.04385 0-.04385 0-1.0951.17432-2.1902.30693-3.2853.4374v.04385c1.0951 4.64348.21897 9.5062-2.45302 13.40429-5.38781-2.89068-11.73945-3.54838-17.65316-1.88327-3.46042 1.00741-7.22751 3.41684-7.97237 7.22724-.96356 4.64348 2.75968 8.14802 6.96496 9.11158 7.22777 1.70789 14.58682-1.18279 19.88694-6.26475 2.10278 1.79665 3.7235 3.98685 4.77476 6.52783 1.05125 2.67145 1.35791 5.60598.87613 8.45388 2.10251-.30693 4.24886-.61279 6.39522-.91971.4382-7.18446-2.54044-14.19247-8.05979-18.7921zm-14.19247 4.02963c-2.2779.92078-4.64322 1.31434-7.09623 1.13895-1.05152-.04385-2.10278-.43847-3.02249-1.05125-.65717-.56894-.61332-.96356-.17539-1.48972 1.22664-1.62019 3.85478-2.23298 5.78217-2.45221 2.75968-.35077 5.5632-.04385 8.19133.87587.30666.13154.61332.21923.91998.39355-1.40176 1.05232-2.97864 1.92819-4.59937 2.58482z" fill="#6ecdea"/><path d="m732.58147 729.95034c2.214 12.47225 5.10807 24.81414 8.66924 36.97047 2.93793-.01353 5.96683-.07732 9.0867-.19142-3.59298-12.07067-6.53261-24.32624-8.80612-36.71336-3.06925.04351-6.0525.02163-8.94983-.06568z" fill="#fff"/><path d="m720.84579 729.62083c2.14665 12.56845 4.95423 25.01501 8.41108 37.28789l2.55929.0058c-3.44323-12.26924-6.26566-24.70423-8.45658-37.25772z" fill="#1c75bc"/><path d="m710.65595 728.77994c2.02695 12.67249 4.73846 25.22596 8.12263 37.60528.86308.04739 1.74124.12508 2.61958.12707-3.41897-12.33989-6.15595-24.85866-8.19859-37.49944l-2.54361-.23292z" fill="#1c75bc"/><path d="m973.20843 666.43789c63.61366 15.72725 125.46436 14.17144 184.26472-4.57948 1.98526-.63151 3.98572-1.27814 5.95593-1.95516 5.21345-1.75997 10.41213-3.68658 15.56561-5.71931 7.30597-2.93648 14.1275-5.94977 20.49475-8.96408 2.77431-1.31121 5.24557-2.59288 8.06559-4.00996 2.82003-1.41708 5.53401-2.86476 8.0965-4.2673.69764-.4376 1.50126-.8598 2.21383-1.23678 2.31492-1.30721 4.52377-2.58943 6.62655-3.84661l2.18368-1.31255c10.46309-6.18509 20.40115-13.21798 29.71439-21.02787l12.37178 13.65746 12.40209 13.65753c-.9256.81568-16.76798 15.04515-45.3201 31.07823l-2.30472 1.25169c-2.22902 1.2519-4.54874 2.47328-6.9292 3.73996-.75804.37687-1.501.78406-2.2742 1.1609-2.69872 1.40224-5.51859 2.78904-8.39909 4.17576-2.67833 1.29627-5.44241 2.57718-8.29232 3.84284-4.36582 1.94366-8.80731 3.87198-13.4607 5.73924-5.85083 2.35923-12.10037 4.66718-18.74855 6.92362-1.95505.67701-3.98581 1.33873-6.062 2.00035-45.10036 14.31461-106.86386 24.16941-180.09919 10.8282-8.14402-1.47226-16.46903-3.26299-24.88425-5.34161l8.8189-35.79506z" fill="#6ecdea"/><path d="m1326.0624 607.0233c-14.40829-4.70456-54.49965-53.99924-29.82316-59.39815 19.07722-3.51775 31.86682 38.33971 36.25356 51.41581l1.8479-.61772c26.21607-8.83447 46.94551-14.80412 74.81895-13.99953 7.10804.20076 52.5563 1.3649 39.60226 18.01808-4.60289 5.89459-14.68894 6.87639-21.43408 7.80471-8.75879 1.07989-17.5787 1.58727-26.40352 1.51892-13.89598.0542-27.7729-.70305-41.61621-1.79383 18.94273 1.77144 36.58544 10.40331 49.60937 24.27204 4.42015 4.81055 15.24507 16.42207 11.44083 23.65808-3.80423 7.23601-16.453 2.07332-21.48162-.61339-6.92547-3.73443-12.68968-9.34456-18.29254-14.78924-10.55337-10.19797-19.45653-21.82289-28.21862-33.51059 4.74268 10.45031 22.83685 45.94476-.37662 40.87814-12.04058-2.59867-17.55199-20.32678-20.55937-30.51569l-5.36712-12.32763z" fill="#e63d31"/><path d="m1254.71512 686.9905-32.53138-99.0232 54.26037-20.13931 44.04759 109.31681z" fill="#1c75bc"/><path d="m1262.34271 660.86056h38.05622v5.90605h-38.05622z" fill="#27aae1" transform="matrix(.9784368 -.20654642 .20654642 .9784368 -109.47788 278.97655)"/><path d="m1255.87791 643.73847h36.90528v5.90605h-36.90528z" fill="#27aae1" transform="matrix(.97096735 -.23921206 .23921206 .97096735 -117.69922 323.61044)"/><path d="m1249.58412 626.06065h35.02747v5.90605h-35.02747z" fill="#27aae1" transform="matrix(.96446507 -.2642104 .2642104 .96446507 -121.16573 357.13244)"/><path d="m1245.21535 608.99922h32.68021v5.90605h-32.68021z" fill="#27aae1" transform="matrix(.95881954 -.28401601 .28401601 .95881954 -121.8528 383.50245)"/><path d="m1238.77161 593.33925h32.16528v5.90605h-32.16528z" fill="#27aae1" transform="matrix(.94164668 -.33660292 .33660292 .94164668 -127.48881 457.18325)"/><path d="m1196.87005 664.49411c-2.36559-3.02222-6.78984-3.59223-10.38154-3.06714-6.04498 1.14002-11.38921 4.60071-15.02502 9.55005-4.11759-2.36559-7.05239-6.35137-8.01595-10.99486-1.00767.30693-2.01508.61279-2.97864.91971-1.00767.35077-2.01508.6577-2.97891.96356.26281 1.22664.65717 2.45328 1.13895 3.63608 1.97124 4.55579 5.38808 8.36619 9.72464 10.81947-2.93506 6.57061-2.58456 14.10477 1.00741 20.4123v.04385c.52563-.17432 1.00741-.34971 1.48946-.48125.26281-.13154.56947-.21923.83229-.30693 1.27022-.39355 2.4966-.78817 3.72324-1.22664-1.66457-2.32174-2.67198-5.12473-2.89095-8.01541-.13154-2.67252.35024-5.38781 1.44534-7.92879 6.96496 2.23405 14.84963 1.57635 20.58795-3.06714 3.373-2.71529 5.21269-7.5331 2.32174-11.25687zm-4.90603 4.9055c-.52589.96356-1.31434 1.7528-2.2779 2.2779-2.10251 1.18279-4.42425 1.92819-6.83342 2.10251-1.79612.08769-3.54812-.04385-5.30039-.4374.21897-.26308.4382-.48231.65717-.70155 1.92739-2.01481 4.33656-3.54838 6.96469-4.42318 1.83996-.61386 4.55579-1.27049 6.26395-.35077.65717.35077.91998.70048.52589 1.5325z" fill="#6ecdea"/><path d="m1207.55521 641.2099c3.47067 12.18149 6.27368 24.54337 8.39648 37.03043-2.67833 1.29627-5.44241 2.57718-8.29232 3.84284-2.07045-12.4234-4.79752-24.7284-8.16976-36.86331 2.76924-1.3163 5.45783-2.65289 8.06559-4.00996z" fill="#fff"/><path d="m1217.86544 635.70587c3.56648 12.23805 6.49036 24.65427 8.75963 37.19782-.75804.37687-1.501.78406-2.2742 1.1609-2.26592-12.514-5.16943-24.90412-8.69917-37.12198.75818-.43746 1.50117-.8598 2.21374-1.23673z" fill="#1c75bc"/><path d="m1226.61522 630.54648c3.73304 12.2803 6.79857 24.75369 9.18323 37.36538l-2.30472 1.25169c-2.31806-12.58964-5.3231-25.04302-9.00165-37.30438z" fill="#1c75bc"/><path d="m1081.23886 933.31504c-6.61289 2.16756-13.2783 4.19743-20.03951 6.03155l-62.21819 9.23885-87.40051-.20848-.84295-13.50249-1.9318-31.14922-.56091-8.91281-2.73008-44.08594-.33515-5.2748-.45102-7.52104-.67456-10.85474-.23377-3.73954-.67129-10.54952-.21242-3.7204-1.95953-31.51301-.00156-.01971-.11734-1.73733 157.64791-29.28644 1.57626 13.01712 3.40877 27.98574.44434 3.58009 1.28933 10.66437.00319.04041.42307 3.56193 1.64695 13.39736.00163.0207 1.54599 12.63369.00319.04041 5.97517 49.17165.00483.06111 1.12357 9.09254 3.01974 24.86744 2.26663 18.67052z" fill="#6ecdea"/><path d="m1068.25402 758.59136-188.89146 21.40885-19.65803-92.84559 210.55632-32.18755z" fill="#1c75bc"/><path d="m1029.69457 684.28655h9.81316v57.25846h-9.81316z" fill="#27aae1" transform="matrix(.99873692 -.05024502 .05024502 .99873692 -34.5137 52.88405)"/><path d="m996.39039 690.84229h9.81316v55.59264h-9.81316z" fill="#27aae1" transform="matrix(.99585264 -.0909809 .0909809 .99585264 -61.22966 94.07938)"/><path d="m962.36914 698.2401h9.81316v52.83652h-9.81316z" fill="#27aae1" transform="matrix(.99254607 -.12187004 .12187004 .99254607 -81.10415 123.28352)"/><path d="m929.78736 703.52449h9.81316v49.36859h-9.81316z" fill="#27aae1" transform="matrix(.98917 -.14677433 .14677433 .98917 -96.75963 145.07559)"/><path d="m899.38746 709.42142h9.81316v48.83855h-9.81316z" fill="#27aae1" transform="matrix(.97723096 -.21217835 .21217835 .97723096 -135.11522 208.58051)"/><path d="m905.87186 935.46401 4.18005 42.79004c12.54004 1.45996 25.25 2.39014 38.08997 2.76001 4.30005.13013 8.61011.18994 12.94006.18994h.03992c13.25 0 26.37012-.58984 39.32007-1.73999 19.28003-1.72998 38.19995-4.68994 56.66992-8.83984 2.09009-.46021 4.17004-.94019 6.23999-1.44995 8.87012-2.11011 17.64014-4.51025 26.29004-7.17017-2-14.3999-4.27002-30.09985-3.35999-30.42993l-2.21997-17.53003-5.08997.6001-168.22998 20.22998-4.87012.58984z" fill="#1c75bc"/><path d="m1067.36032 818.75562 1.48565 12.66354c-30.28375-1.67393-94.94729-1.85091-163.32401 19.31646l-.80386-12.79833c67.997-20.6533 130.95014-20.87404 162.64221-19.18167z" fill="#fff"/><path d="m1065.23322 801.80481.41595 3.55969c-31.70922-.81395-107.03605-.06106-161.60303 21.7131l-.23382-3.741c54.73296-21.50121 129.36357-22.42224 161.4209-21.5318z" fill="#1c75bc"/><path d="m1063.49377 787.52039.43107 3.57489c-32.17888-.72416-106.73362.12134-160.77011 21.69983l-.2187-3.7259c54.23268-21.27515 128.06092-22.30411 160.55773-21.54882z" fill="#1c75bc"/><path d="m1055.28606 620.52645 105.05239-153.5619 7.20064-136.77739-91.5088-122.38754-14.80318-170.18903-71.13858 70.39349-140.44109 139.20104-130.51897-42.35031-115.70721-9.485-33.90914 34.36004 80.72717 115.39695 18.22317 64.46296 60.61625 202.18571 175.56235 53.15912z" fill="#fff"/><path d="m1274.0089 385.7246c-.65717-1.79558-22.34022-60.97488-94.35407-86.90653 0 0 26.58908-6.61445 35.56913-2.93453-.91998-.83309-31.01334-27.59783-79.54829-31.97823l-31.27615-77.48909-.61305-1.5325 36.92677 2.4966s-2.10278-5.12527-13.18506-11.47664c-6.43933-3.72377-15.85704-7.84109-29.61157-11.56433 12.74686-50.3308-19.23004-129.61601-19.23004-129.61601-6.08856.83202-11.87072 1.83943-17.43392 2.93453h-.08769v.04385h-.04385c-58.52213 11.69587-90.14852 38.28469-107.10067 61.72028-8.19133 11.0387-14.23631 23.52221-17.91597 36.75112-26.06346 6.78984-57.90881 18.13547-95.88711 36.6645.56947-.83255 18.87953-27.11498 43.54123-36.79604-4.46783.26308-8.89208.8764-13.27249 1.79665-40.78155 8.14695-76.74476 31.80178-100.44263 65.88091-.4382.52563-.78844 1.0951-1.18279 1.66457 0 0-.39435-.17539-1.18279-.43793-12.7907-4.59964-128.56475-43.67303-217.61844 8.54157 0 0 2.54071 41.70207 71.00645 127.16272.13127.13261.21897.30693.35051.43847 8.93593 11.1264 19.0108 23.08481 30.39975 35.74478 0 0-59.00391 64.17249-62.50818 124.27151 0 0 26.32627-59.74824 46.78268-76.61322-1.53303 2.80406-67.06398 123.39564-9.81206 189.80325 0 0-9.63694-41.57106-1.97124-61.4572.26281-.70048.52563-1.40203.87613-2.01588v-.04278c.35024-.7454.74459-1.40203 1.13895-2.05973 0 0 .08743.6577.21897 1.88434 1.00741 9.02389 6.35164 48.70954 23.78556 80.94978l-2.62814-.91971c2.58429 1.83943 4.94961 3.94194 7.09623 6.30753.21897.17539.35024.39355.52563.61386 6.83342.21816 13.66684 1.0951 20.32487 2.49606-6.00113-13.754-10.81947-28.95387-8.54157-39.07286 7.35905 15.06833 15.63807 29.74311 24.70528 43.89173 2.67225.96356 5.34423 1.88327 7.97237 3.02222 16.11985 7.31493 31.49512 15.33141 46.65141 24.04838 8.05979.30693 16.11985.6577 24.13607 1.00741 33.29096 6.52676 57.03268 12.92198 89.40393 15.46295 5.69447.48125 11.60818.78817 17.91597.96356 6.04498.17539 12.00226.35077 17.95955.57001h.04385c21.02589.78817 41.9205 1.88327 62.85869 3.2853h.04385c2.58456.17539 5.08142.34971 7.66571.52509h.04385c8.89235.6577 17.78443 1.31434 26.67678 2.10251.39409 0 .70075.04385 1.0951.04385h.04358c3.41684.26308 6.70215.21923 9.81233-.04385 8.36645-.70048 15.94447-2.89068 24.44246-5.30012 3.06634-.91971 6.26395-1.83943 9.68079-2.71529 1.92739-.52616 3.89862-1.00741 5.95729-1.48972 8.80465-2.14636 17.39034-5.1258 25.62552-8.9362.21897-.08769.48178-.21923.70075-.30693-.13127.08769-.35051.21923-.70075.43847-2.2779 1.31434-9.41798 5.43166-23.25993 14.36785 7.44647-4.68733 15.19987-8.8485 23.21609-12.30919 2.40917-1.00741 4.86218-2.01481 7.3152-2.93453h.13154c.87587-.35077 1.62073-.6577 2.4966-.96356l-.48178-.26308c2.32174-1.18279 4.68706-2.45328 7.05239-3.76762 5.08142-2.84683 9.89976-6.17598 14.4117-9.9436h.04385c.96356-.83202 1.88354-1.66404 2.80326-2.49713 14.32401-12.5712 34.51761-35.74371 48.27214-74.07225 0 0-.70075 40.95721-5.60678 48.27214 1.35791-1.35711 44.7676-44.94299 47.52728-91.11262 0 0 1.53303 41.30798-.56947 49.84955 0 0 46.73884-60.18671 50.46234-129.26577 0 0 4.64322 23.39067 2.97864 28.38493 1.13895-.83202 54.84274-42.27047-1.35791-117.48274 10.77562-.08769 21.15743 4.20609 28.73544 11.91457zm-629.33258-78.01525c-30.66283-28.99772-51.77641-73.80917-51.77641-73.80917 39.86157-24.00453 103.5964-3.24146 123.22079 4.11732 3.76708 1.44588 5.91344 2.36559 5.91344 2.36559-16.38267 15.5945-29.78669 35.56832-39.33594 52.12745v.04278c-10.29411 17.7847-16.03243 31.58254-16.03243 31.58254-4.77449-2.58375-9.41771-5.78136-13.88581-9.37359-2.75968-2.1902-5.47551-4.55579-8.10364-7.05292zm385.91349 37.10296c18.61672 55.49938-2.71583 102.10748-48.5788 117.43889-45.9504 15.41911-99.08472-6.26475-117.70144-61.76412-18.57287-55.4566-8.27876-148.18941 37.62779-163.60852 45.90655-15.46189 110.07958 52.43438 128.65245 107.93375zm36.88293-235.05317c.04385.04385.04385.08769.04385.13154 0 .08769.04385.17539.04385.26308v.04385c3.15376 14.23631 5.30039 30.31205 3.85478 44.72375v.04385c-.56947 6.35137-1.92739 12.39689-4.20528 17.82854-.08743.2187-.17512.43793-.26281.65663-.91971 2.10251-1.97124 4.11786-3.19761 6.00167 0 0-5.125-2.62867-13.05352-6.52676h-.08769c-4.24913-2.10304-9.19901-4.55579-14.71809-7.14061-20.41283-9.72437-46.87038-21.37586-60.14313-23.65375-10.16257-1.70896 18.31006-55.54376 79.67956-71.44465 0 0 7.14008 17.25854 12.04611 39.07286z" fill="#e73c31"/><path d="m699.53083 539.38177c2.81693-.08447 135.1575 93.77395 135.1575 93.77395l266.087 28.58925c-119.38208 101.78314-312.9502 35.18093-312.9502 35.18093 20.24 19.77016 45.1173 34.1456 72.35298 41.80945-143.67675-3.24863-182.84403-94.30613-182.84403-94.30613 4.65755 22.99885 31.47628 70.12651 31.47628 70.12651-67.03525-42.81208-84.81274-163.56342-84.81274-163.56342s72.71626-11.52606 75.5332-11.61053z" fill="#e73c31"/><path d="m871.27119 595.10663c-95.62359-37.50086-132.56909-146.66527-132.93008-147.75644-.03593-.09376-.06741-.18917-.09435-.28592-.47343-1.70008.52093-3.462 2.22099-3.93545 1.70003-.47341 3.46197.52098 3.9354 2.22101.34592 1.06082 36.34378 107.3912 129.15305 143.82564 59.65879 23.41134 129.67618 13.33295 208.08277-29.93671 1.43662-.64343 3.12779-.13904 3.97726 1.18617.9478 1.47868.51751 3.44573-.96117 4.39357-73.38776 40.49459-139.82031 52.45892-197.72233 35.66944-5.32708-1.54661-10.54764-3.34037-15.66156-5.38132z" fill="#fff"/><path d="m706.03569 475.6867c14.50372-85.01455 67.2659-45.52106 67.2659-45.52106-62.18333-58.77774-68.5368 31.64647-68.5368 31.64647z" fill="#fff"/><path d="m1137.49829 394.99493c-1.23685 24.53013-16.2221 54.78369-16.2221 54.78369s-91.88306-10.80905-56.80501-33.06656c35.06302-22.31813 74.26397-46.24726 73.02711-21.71713z" fill="#fff"/><path d="m950.29874 430.0441c-1.80307 0-3.38369-1.31754-3.65961-3.15269-6.62622-44.09493-3.28103-68.36254 10.22593-74.18882 22.26777-9.63347 60.82302 38.41409 65.14568 43.92382 1.26407 1.60843.98388 3.9398-.62669 5.20173-1.60843 1.26621-3.93338.9796-5.19959-.62455-14.97208-19.06588-43.51102-47.24762-56.38487-41.69939-5.53967 2.39126-13.66524 14.1807-5.8327 66.28356.30372 2.02337-1.09082 3.90985-3.11419 4.21357-.18608.02994-.37216.04278-.55397.04278z" fill="#e73c31"/><path d="m1084.11902 369.73227c-1.74532 0-3.26391-1.2876-3.50561-3.06714-6.17278-45.43386-2.91528-69.03414 10.2516-74.27009 20.72136-8.25603 55.24913 38.79909 59.11834 44.18904 1.14002 1.59132.77641 3.80291-.81277 4.94507-1.58918 1.13788-3.80291.77427-4.94507-.81277-13.36793-18.62955-38.95736-46.42629-50.74253-41.73789-5.28515 2.10037-13.07277 13.56899-5.84981 66.737.26308 1.93782-1.0951 3.72163-3.03292 3.98685-.16255.02139-.32297.02994-.48125.02994z" fill="#fff"/><circle cx="1444.42894" cy="177.03729" fill="#8ecbd0" r="134.48122"/><path d="m1330.31342 218.78193-64.7239 73.45256 98.31099-28.52119z" fill="#8ecbd0"/><circle cx="402.57149" cy="276.19273" fill="#edc86b" r="85.46612"/><path d="m457.69498 330.27456 59.82812 17.07857-43.21862-48.62438z" fill="#edc86b"/><path d="m262.6448 694.69477c36.66592 78.27519 134.51361 109.84476 218.53194 70.48863 83.99001-39.34287 122.34298-134.712 85.67706-212.98719-10.32072-22.03289-21.02286-36.61501-39.3758-50.71057l-.02589-.05527c-.01469.04058-.04058-.01469-.04058-.01469-.27082-.07453-.56959-.13678-.88064-.22699-.02764.01295-.1088-.01644-.14939-.03113-9.90941-2.39438-21.53784-2.63794-29.97215-4.03988-54.09579 2.17541-115.01965 36.63924-162.13509 58.6755-15.87587 7.43662-49.69891 20.62019-58.0394 36.88394-12.74907 24.89319-16.47183 47.7809-22.76516 73.58984.00114 1.00968.03028 2.00543.05973 3.00185l.02589.05527c2.20799 8.59526 5.19655 17.05998 9.08947 25.37067z" fill="#abb26f"/><path d="m253.52944 669.26883.02589.05527c1.23239-2.3281 51.79765-97.86197 90.81491-25.13267 0 0 15.00024-112.37514 91.94979-60.44486 0 0-25.41398-95.29529 91.15797-82.26092l.20466.00524c-.06822-.00175-.14939-.03113-.23055-.06051-.01469.04058-.04058-.01469-.04058-.01469-.27257-.00631-.58361-.09652-.88064-.22699-.02764.01295-.1088-.01644-.14939-.03113-1.37852-.49847-2.84274-1.39574-4.03061-1.8487-4.9969-1.969-10.03652-3.81688-15.10687-5.58296-16.99477-5.87735-34.32676-10.8216-51.90599-14.64064-13.17018-2.8874-26.44417-4.91897-39.81123-6.50172-12.55115-1.49394-25.28006-3.51124-37.88305-1.37815-13.04134 2.2028-25.05379 7.89711-36.68065 13.98291-16.07871 8.44076-32.24865 17.76595-43.74682 32.1757-9.62516 12.08405-14.38348 26.93862-19.6736 41.23347-7.00483 18.97125-13.17274 38.29024-17.71412 57.99318-3.74391 16.23051-6.60023 32.98888-6.35885 49.67633.00114 1.00968.03028 2.00543.05973 3.00185z" fill="#e5e2b6"/><path d="m350.16425 500.35756c-2.5413 2.0679-5.4461 4.13525-8.72058 6.05913l-2.10812-1.94801-83.42894-77.83113-83.676 23.57768-3.19174-9.94143 89.71491-23.05955 89.46208 81.36543 1.94838 1.77788z" fill="#c16c29"/><path d="m365.73331 482.58862c-.47731.83288-5.30358 9.468-15.56907 17.76894-2.5413 2.0679-5.4461 4.13525-8.72058 6.05913-7.81601 4.5899-17.68456 8.26838-29.81739 9.35524 0 0 12.33382-2.23656 27.70927-11.30325 2.87096-1.69433 5.849-3.63838 8.88032-5.889 5.81276-4.24493 11.78966-9.51969 17.51745-15.99106z" fill="#c5c090"/><path d="m1276.17642 603.62349 3.34376 13.31101 331.95515-73.82975 67.36626-202.37881-228.86285 21.85475-47.20872 208.20236z" fill="#8f9193"/><path d="m1276.93762 606.19253 128.32639-33.29101 47.13236-207.86947 226.70846-21.64945-.52565-5.3136-231.01904 22.06049-47.28502 208.53406-124.85885 32.39072z" fill="#fff"/><path d="m1612.93657 538.71496-334.38345 74.36982.96706 3.84972 331.67513-73.76747z" fill="#201d1e" opacity=".5"/><ellipse cx="1544.33345" cy="461.31396" fill="#fff" rx="27.21422" ry="15.68548" transform="matrix(.19968929 -.97985927 .97985927 .19968929 783.92379 1882.42391)"/></svg>