<svg viewBox="0 0 1920 1080" xmlns="http://www.w3.org/2000/svg" xmlns:xlink="http://www.w3.org/1999/xlink"><clipPath id="a"><path d="m201.32499 308.49058-46.76341-62.35313s-10.60355 97.38485-11.56349 99.68334c-.96108 2.29606 58.3269-37.33021 58.3269-37.33021z"/></clipPath><g fill="#58c7b5"><path d="m113.01889 1010.19661c12.79367 0 18.6237-13.96466 23.75611-26.27249 4.2604-10.215 8.6703-20.77881 15.50937-20.77881 6.82661 0 11.22405 10.56381 15.48445 20.77881 5.13242 12.30783 10.94999 26.27249 23.71874 26.27249s18.58632-13.96466 23.71874-26.27249c4.2604-10.215 8.65784-20.77881 15.48445-20.77881 6.81415 0 11.21159 10.55135 15.45954 20.76635 5.13242 12.32029 10.93753 26.28495 23.71874 26.28495 12.76875 0 18.57387-13.96466 23.69383-26.28495 4.24795-10.215 8.64538-20.76635 15.44708-20.76635 2.46655 0 4.47218-2.00563 4.47218-4.47218s-2.00563-4.47218-4.47218-4.47218c-12.76875 0-18.57387 13.96466-23.69383 26.28495-4.24795 10.215-8.64538 20.76635-15.44708 20.76635-6.81415 0-11.22405-10.56381-15.47199-20.77881-5.11996-12.30783-10.93753-26.27249-23.70628-26.27249-12.78121 0-18.59878 13.96466-23.7312 26.28495-4.2604 10.215-8.65784 20.76635-15.47199 20.76635s-11.21159-10.55135-15.47199-20.76635c-5.13242-12.32029-10.94999-26.28495-23.7312-26.28495-12.79367 0-18.6237 13.96466-23.75611 26.27249-4.2604 10.215-8.6703 20.77881-15.50937 20.77881s-11.24896-10.56381-15.50937-20.77881c-5.13242-12.30783-10.96244-26.27249-23.75611-26.27249-2.46655 0-4.47218 2.00563-4.47218 4.47218s2.00563 4.47218 4.47218 4.47218c6.83907 0 11.24896 10.56381 15.50937 20.77881 5.13242 12.30783 10.96244 26.27249 23.75611 26.27249z"/><path d="m1519.5788 815.55135c10.45944 0 15.22577-11.41678 19.42177-21.47903 3.48309-8.35126 7.08839-16.98769 12.67966-16.98769 5.58109 0 9.1762 8.63643 12.65929 16.98769 4.196 10.06225 8.95214 21.47903 19.39122 21.47903s15.19522-11.41678 19.39122-21.47903c3.48309-8.35126 7.0782-16.98769 12.65929-16.98769 5.5709 0 9.16602 8.62624 12.63892 16.9775 4.196 10.07243 8.94196 21.48922 19.39122 21.48922 10.43908 0 15.18504-11.41678 19.37085-21.48922 3.4729-8.35126 7.06802-16.9775 12.62874-16.9775 2.01652 0 3.65622-1.6397 3.65622-3.65622s-1.6397-3.65622-3.65622-3.65622c-10.43908 0-15.18504 11.41678-19.37085 21.48922-3.4729 8.35126-7.06802 16.9775-12.62874 16.9775-5.5709 0-9.1762-8.63643-12.6491-16.98769-4.18581-10.06225-8.94196-21.47903-19.38103-21.47903-10.44926 0-15.2054 11.41678-19.4014 21.48922-3.48309 8.35126-7.0782 16.9775-12.6491 16.9775s-9.16602-8.62624-12.6491-16.9775c-4.196-10.07243-8.95214-21.48922-19.4014-21.48922-10.45944 0-15.22577 11.41678-19.42177 21.47903-3.48309 8.35126-7.08839 16.98769-12.67966 16.98769s-9.19657-8.63643-12.67966-16.98769c-4.196-10.06225-8.96233-21.47903-19.42177-21.47903-2.01652 0-3.65622 1.6397-3.65622 3.65622s1.6397 3.65622 3.65622 3.65622c5.59127 0 9.19657 8.63643 12.67966 16.98769 4.196 10.06225 8.96233 21.47903 19.42177 21.47903z"/><path d="m187.67644 748.50872c9.39968 0 13.68308-10.26002 17.45393-19.30275 3.13018-7.5051 6.37018-15.26647 11.39494-15.26647 5.0156 0 8.24646 7.76137 11.37663 15.26647 3.77086 9.04273 8.0451 19.30275 17.42648 19.30275s13.65562-10.26002 17.42648-19.30275c3.13018-7.5051 6.36103-15.26647 11.37663-15.26647 5.00645 0 8.23731 7.75222 11.35833 15.25732 3.77086 9.05188 8.03595 19.3119 17.42648 19.3119 9.38138 0 13.64647-10.26002 17.40817-19.3119 3.12102-7.5051 6.35188-15.25732 11.34918-15.25732 1.81221 0 3.28577-1.47356 3.28577-3.28577s-1.47356-3.28577-3.28577-3.28577c-9.38138 0-13.64647 10.26002-17.40817 19.3119-3.12102 7.5051-6.35188 15.25732-11.34918 15.25732-5.00645 0-8.24646-7.76137-11.36748-15.26647-3.7617-9.04273-8.03595-19.30275-17.41732-19.30275-9.39053 0-13.66477 10.26002-17.43563 19.3119-3.13018 7.5051-6.36103 15.25732-11.36748 15.25732s-8.23731-7.75222-11.36748-15.25732c-3.77086-9.05188-8.0451-19.3119-17.43563-19.3119-9.39968 0-13.68308 10.26002-17.45393 19.30275-3.13018 7.5051-6.37018 15.26647-11.39494 15.26647s-8.26476-7.76137-11.39494-15.26647c-3.77086-9.04273-8.05425-19.30275-17.45393-19.30275-1.81221 0-3.28577 1.47356-3.28577 3.28577s1.47356 3.28577 3.28577 3.28577c5.02476 0 8.26476 7.76137 11.39494 15.26647 3.77086 9.04273 8.05425 19.30275 17.45393 19.30275z"/><path d="m1380.37413 1023.33954c9.39968 0 13.68308-10.26002 17.45393-19.30275 3.13018-7.5051 6.37018-15.26647 11.39494-15.26647 5.0156 0 8.24646 7.76137 11.37663 15.26647 3.77086 9.04273 8.0451 19.30275 17.42648 19.30275s13.65562-10.26002 17.42648-19.30275c3.13018-7.5051 6.36103-15.26647 11.37663-15.26647 5.00645 0 8.23731 7.75222 11.35833 15.25732 3.77086 9.05188 8.03595 19.3119 17.42648 19.3119 9.38138 0 13.64647-10.26002 17.40817-19.3119 3.12102-7.5051 6.35188-15.25732 11.34918-15.25732 1.81221 0 3.28577-1.47356 3.28577-3.28577s-1.47356-3.28577-3.28577-3.28577c-9.38138 0-13.64647 10.26002-17.40817 19.3119-3.12102 7.5051-6.35188 15.25732-11.34918 15.25732-5.00645 0-8.24646-7.76137-11.36748-15.26647-3.7617-9.04273-8.03595-19.30275-17.41732-19.30275-9.39053 0-13.66477 10.26002-17.43563 19.3119-3.13018 7.5051-6.36103 15.25732-11.36748 15.25732s-8.23731-7.75222-11.36748-15.25732c-3.77086-9.05188-8.0451-19.3119-17.43563-19.3119-9.39968 0-13.68308 10.26002-17.45393 19.30275-3.13018 7.5051-6.37018 15.26647-11.39494 15.26647s-8.26476-7.76137-11.39494-15.26647c-3.77086-9.04273-8.05425-19.30275-17.45393-19.30275-1.81221 0-3.28577 1.47356-3.28577 3.28577s1.47356 3.28577 3.28577 3.28577c5.02476 0 8.26476 7.76137 11.39494 15.26647 3.77086 9.04273 8.05425 19.30275 17.45393 19.30275z"/><path d="m1727.76505 955.05793c9.39968 0 13.68308-10.26002 17.45393-19.30275 3.13018-7.5051 6.37018-15.26647 11.39494-15.26647 5.0156 0 8.24646 7.76137 11.37663 15.26647 3.77086 9.04273 8.0451 19.30275 17.42648 19.30275s13.65562-10.26002 17.42648-19.30275c3.13018-7.5051 6.36103-15.26647 11.37663-15.26647 5.00645 0 8.23731 7.75222 11.35833 15.25732 3.77086 9.05188 8.03595 19.3119 17.42648 19.3119 9.38138 0 13.64647-10.26002 17.40817-19.3119 3.12102-7.5051 6.35188-15.25732 11.34918-15.25732 1.81221 0 3.28577-1.47356 3.28577-3.28577s-1.47356-3.28577-3.28577-3.28577c-9.38138 0-13.64647 10.26002-17.40817 19.3119-3.12102 7.5051-6.35188 15.25732-11.34918 15.25732-5.00645 0-8.24646-7.76137-11.36748-15.26647-3.7617-9.04273-8.03595-19.30275-17.41732-19.30275-9.39053 0-13.66477 10.26002-17.43563 19.3119-3.13018 7.5051-6.36103 15.25732-11.36748 15.25732s-8.23731-7.75222-11.36748-15.25732c-3.77086-9.05188-8.0451-19.3119-17.43563-19.3119-9.39968 0-13.68308 10.26002-17.45393 19.30275-3.13018 7.5051-6.37018 15.26647-11.39494 15.26647s-8.26476-7.76137-11.39494-15.26647c-3.77086-9.04273-8.05425-19.30275-17.45393-19.30275-1.81221 0-3.28577 1.47356-3.28577 3.28577s1.47356 3.28577 3.28577 3.28577c5.02476 0 8.26476 7.76137 11.39494 15.26647 3.77086 9.04273 8.05425 19.30275 17.45393 19.30275z"/><path d="m438.50503 906.31089c9.39968 0 13.68308-10.26002 17.45393-19.30275 3.13018-7.5051 6.37018-15.26647 11.39494-15.26647 5.0156 0 8.24646 7.76137 11.37663 15.26647 3.77086 9.04273 8.0451 19.30275 17.42648 19.30275s13.65562-10.26002 17.42648-19.30275c3.13018-7.5051 6.36103-15.26647 11.37663-15.26647 5.00645 0 8.23731 7.75222 11.35833 15.25732 3.77086 9.05188 8.03595 19.3119 17.42648 19.3119 9.38138 0 13.64647-10.26002 17.40817-19.3119 3.12102-7.5051 6.35188-15.25732 11.34918-15.25732 1.81221 0 3.28577-1.47356 3.28577-3.28577s-1.47356-3.28577-3.28577-3.28577c-9.38138 0-13.64647 10.26002-17.40817 19.3119-3.12102 7.5051-6.35188 15.25732-11.34918 15.25732-5.00645 0-8.24646-7.76137-11.36748-15.26647-3.7617-9.04273-8.03595-19.30275-17.41732-19.30275-9.39053 0-13.66477 10.26002-17.43563 19.3119-3.13018 7.5051-6.36103 15.25732-11.36748 15.25732s-8.23731-7.75222-11.36748-15.25732c-3.77086-9.05188-8.0451-19.3119-17.43563-19.3119-9.39968 0-13.68308 10.26002-17.45393 19.30275-3.13018 7.5051-6.37018 15.26647-11.39494 15.26647s-8.26476-7.76137-11.39494-15.26647c-3.77086-9.04273-8.05425-19.30275-17.45393-19.30275-1.81221 0-3.28577 1.47356-3.28577 3.28577s1.47356 3.28577 3.28577 3.28577c5.02476 0 8.26476 7.76137 11.39494 15.26647 3.77086 9.04273 8.05425 19.30275 17.45393 19.30275z"/><path d="m1676.62945 341.01052c9.39968 0 13.68308-10.26002 17.45393-19.30275 3.13018-7.5051 6.37018-15.26647 11.39494-15.26647 5.0156 0 8.24646 7.76137 11.37663 15.26647 3.77086 9.04273 8.0451 19.30275 17.42648 19.30275s13.65562-10.26002 17.42648-19.30275c3.13018-7.5051 6.36103-15.26647 11.37663-15.26647 5.00645 0 8.23731 7.75222 11.35833 15.25732 3.77086 9.05188 8.03595 19.3119 17.42648 19.3119 9.38138 0 13.64647-10.26002 17.40817-19.3119 3.12102-7.5051 6.35188-15.25732 11.34918-15.25732 1.81221 0 3.28577-1.47356 3.28577-3.28577s-1.47356-3.28577-3.28577-3.28577c-9.38138 0-13.64647 10.26002-17.40817 19.3119-3.12102 7.5051-6.35188 15.25732-11.34918 15.25732-5.00645 0-8.24646-7.76137-11.36748-15.26647-3.7617-9.04273-8.03595-19.30275-17.41732-19.30275-9.39053 0-13.66477 10.26002-17.43563 19.3119-3.13018 7.5051-6.36103 15.25732-11.36748 15.25732s-8.23731-7.75222-11.36748-15.25732c-3.77086-9.05188-8.0451-19.3119-17.43563-19.3119-9.39968 0-13.68308 10.26002-17.45393 19.30275-3.13018 7.5051-6.37018 15.26647-11.39494 15.26647s-8.26476-7.76137-11.39494-15.26647c-3.77086-9.04273-8.05425-19.30275-17.45393-19.30275-1.81221 0-3.28577 1.47356-3.28577 3.28577s1.47356 3.28577 3.28577 3.28577c5.02476 0 8.26476 7.76137 11.39494 15.26647 3.77086 9.04273 8.05425 19.30275 17.45393 19.30275z"/><path d="m1358.6533 185.64666c7.11095 0 10.35138-7.7618 13.20407-14.60272 2.36801-5.67768 4.8191-11.54923 8.62038-11.54923 3.79435 0 6.23852 5.87155 8.60653 11.54923 2.85269 6.84091 6.0862 14.60272 13.1833 14.60272s10.33061-7.7618 13.1833-14.60272c2.36801-5.67768 4.81218-11.54923 8.60653-11.54923 3.78743 0 6.2316 5.86463 8.59268 11.54231 2.85269 6.84784 6.07927 14.60964 13.1833 14.60964 7.0971 0 10.32368-7.7618 13.16945-14.60964 2.36108-5.67768 4.80526-11.54231 8.58576-11.54231 1.37095 0 2.48572-1.11476 2.48572-2.48572s-1.11476-2.48572-2.48572-2.48572c-7.0971 0-10.32368 7.7618-13.16945 14.60964-2.36108 5.67768-4.80526 11.54231-8.58576 11.54231-3.78743 0-6.23852-5.87155-8.59961-11.54923-2.84576-6.84091-6.07927-14.60272-13.17637-14.60272-7.10402 0-10.33753 7.7618-13.19022 14.60964-2.36801 5.67768-4.81218 11.54231-8.59961 11.54231s-6.2316-5.86463-8.59961-11.54231c-2.85269-6.84784-6.0862-14.60964-13.19022-14.60964-7.11095 0-10.35138 7.7618-13.20407 14.60272-2.36801 5.67768-4.8191 11.54923-8.62038 11.54923s-6.25237-5.87155-8.62038-11.54923c-2.85269-6.84091-6.09312-14.60272-13.20407-14.60272-1.37095 0-2.48572 1.11476-2.48572 2.48572s1.11476 2.48572 2.48572 2.48572c3.80128 0 6.25237 5.87155 8.62038 11.54923 2.85269 6.84091 6.09312 14.60272 13.20407 14.60272z"/><path d="m628.92409 86.9088c7.11095 0 10.35138-7.7618 13.20407-14.60272 2.36801-5.67768 4.8191-11.54923 8.62038-11.54923 3.79435 0 6.23852 5.87155 8.60653 11.54923 2.85269 6.84091 6.0862 14.60272 13.1833 14.60272s10.33061-7.7618 13.1833-14.60272c2.36801-5.67768 4.81218-11.54923 8.60653-11.54923 3.78743 0 6.2316 5.86463 8.59268 11.54231 2.85269 6.84784 6.07927 14.60964 13.1833 14.60964 7.0971 0 10.32368-7.7618 13.16945-14.60964 2.36108-5.67768 4.80526-11.54231 8.58576-11.54231 1.37095 0 2.48572-1.11476 2.48572-2.48572s-1.11476-2.48572-2.48572-2.48572c-7.0971 0-10.32368 7.7618-13.16945 14.60964-2.36108 5.67768-4.80526 11.54231-8.58576 11.54231-3.78743 0-6.23852-5.87155-8.59961-11.54923-2.84576-6.84091-6.07927-14.60272-13.17637-14.60272-7.10402 0-10.33753 7.7618-13.19022 14.60964-2.36801 5.67768-4.81218 11.54231-8.59961 11.54231s-6.2316-5.86463-8.59961-11.54231c-2.85269-6.84784-6.0862-14.60964-13.19022-14.60964-7.11095 0-10.35138 7.7618-13.20407 14.60272-2.36801 5.67768-4.8191 11.54923-8.62038 11.54923s-6.25237-5.87155-8.62038-11.54923c-2.85269-6.84091-6.09312-14.60272-13.20407-14.60272-1.37095 0-2.48572 1.11476-2.48572 2.48572s1.11476 2.48572 2.48572 2.48572c3.80128 0 6.25237 5.87155 8.62038 11.54923 2.85269 6.84091 6.09312 14.60272 13.20407 14.60272z"/><path d="m1652.07499 122.0716c7.11095 0 10.35138-7.7618 13.20407-14.60272 2.36801-5.67768 4.8191-11.54923 8.62038-11.54923 3.79435 0 6.23852 5.87155 8.60653 11.54923 2.85269 6.84091 6.0862 14.60272 13.1833 14.60272s10.33061-7.7618 13.1833-14.60272c2.36801-5.67768 4.81218-11.54923 8.60653-11.54923 3.78743 0 6.2316 5.86463 8.59268 11.54231 2.85269 6.84784 6.07927 14.60964 13.1833 14.60964 7.0971 0 10.32368-7.7618 13.16945-14.60964 2.36108-5.67768 4.80526-11.54231 8.58576-11.54231 1.37095 0 2.48572-1.11476 2.48572-2.48572s-1.11476-2.48572-2.48572-2.48572c-7.0971 0-10.32368 7.7618-13.16945 14.60964-2.36108 5.67768-4.80526 11.54231-8.58576 11.54231-3.78743 0-6.23852-5.87155-8.59961-11.54923-2.84576-6.84091-6.07927-14.60272-13.17637-14.60272-7.10402 0-10.33753 7.7618-13.19022 14.60964-2.36801 5.67768-4.81218 11.54231-8.59961 11.54231s-6.2316-5.86463-8.59961-11.54231c-2.85269-6.84784-6.0862-14.60964-13.19022-14.60964-7.11095 0-10.35138 7.7618-13.20407 14.60272-2.36801 5.67768-4.8191 11.54923-8.62038 11.54923s-6.25237-5.87155-8.62038-11.54923c-2.85269-6.84091-6.09312-14.60272-13.20407-14.60272-1.37095 0-2.48572 1.11476-2.48572 2.48572s1.11476 2.48572 2.48572 2.48572c3.80128 0 6.25237 5.87155 8.62038 11.54923 2.85269 6.84091 6.09312 14.60272 13.20407 14.60272z"/><path d="m28.95812 567.56574c7.11095 0 10.35138-7.7618 13.20407-14.60272 2.36801-5.67768 4.8191-11.54923 8.62038-11.54923 3.79435 0 6.23852 5.87155 8.60653 11.54923 2.85269 6.84091 6.0862 14.60272 13.1833 14.60272s10.33061-7.7618 13.1833-14.60272c2.36801-5.67768 4.81218-11.54923 8.60653-11.54923 3.78743 0 6.2316 5.86463 8.59268 11.54231 2.85269 6.84784 6.07927 14.60964 13.1833 14.60964 7.0971 0 10.32368-7.7618 13.16945-14.60964 2.36108-5.67768 4.80526-11.54231 8.58576-11.54231 1.37095 0 2.48572-1.11476 2.48572-2.48572s-1.11476-2.48572-2.48572-2.48572c-7.0971 0-10.32368 7.7618-13.16945 14.60964-2.36108 5.67768-4.80526 11.54231-8.58576 11.54231-3.78743 0-6.23852-5.87155-8.59961-11.54923-2.84576-6.84091-6.07927-14.60272-13.17637-14.60272-7.10402 0-10.33753 7.7618-13.19022 14.60964-2.36801 5.67768-4.81218 11.54231-8.59961 11.54231s-6.2316-5.86463-8.59961-11.54231c-2.85269-6.84784-6.0862-14.60964-13.19022-14.60964-7.11095 0-10.35138 7.7618-13.20407 14.60272-2.36801 5.67768-4.8191 11.54923-8.62038 11.54923s-6.25237-5.87155-8.62038-11.54923c-2.85269-6.84091-6.09312-14.60272-13.20407-14.60272-1.37095 0-2.48572 1.11476-2.48572 2.48572s1.11476 2.48572 2.48572 2.48572c3.80128 0 6.25237 5.87155 8.62038 11.54923 2.85269 6.84091 6.09312 14.60272 13.20407 14.60272z"/></g><path d="m1487.44594 382.76259c-.22998-.77997-.47021-1.56995-.7002-2.34998-.23975-.77997-.46973-1.56-.71973-2.34003-3.57031-11.64996-7.55029-23.18994-11.9502-34.60999-.22998-.62-.46973-1.23999-.70996-1.84998-1.87012-4.82001-3.82031-9.62-5.83984-14.39001-5.68018-13.44-11.89014-26.58997-18.62012-39.44-.31006-.59998-.62012-1.19-.93018-1.78998-.31006-.58002-.61963-1.17004-.93994-1.75-24.52979-46.02002-55.68994-88.04004-93.00977-125.35004-48.63037-48.63995-105.27002-86.82996-168.34033-113.5-65.29004-27.62-134.6499-41.62006-206.14014-41.62006-71.5 0-140.84961 14.00006-206.1499 41.62006-55.2998 23.39001-105.65967 55.63-150.00977 96.02002-.93994.84998-1.87012 1.70001-2.80029 2.58002-.17969.14996-.35986.31-.54004.47998-.95996.89001-1.90967 1.78003-2.85986 2.67999-2.31006 2.16003-4.60986 4.35004-6.87988 6.57001-1.76025 1.71002-3.5 3.42999-5.23975 5.16998-.22021.22003-.43018.42999-.64014.65002-7.06006 7.07001-13.89014 14.31-20.49023 21.71997-1.7998 2.01001-3.56982 4.03003-5.32959 6.06-1.55029 1.78003-3.08008 3.58002-4.59033 5.38-.93994 1.11005-1.87988 2.23004-2.7998 3.35004-32.81006 39.60999-59.51025 83.56-79.6499 131.16998-27.62012 65.29999-41.62012 134.65002-41.62012 206.15002 0 71.48999 14 140.84998 41.62012 206.13995 26.66992 63.07001 64.85986 119.71002 113.5 168.34003 48.62988 48.64001 105.26953 86.83002 168.32959 113.5 65.30029 27.62 134.6499 41.62 206.1499 41.62 71.49023 0 140.8501-14 206.14014-41.62 63.07031-26.66998 119.70996-64.85999 168.34033-113.5 48.63965-48.63 86.83008-105.27002 113.5-168.34003 27.61963-65.28998 41.61963-134.64996 41.61963-206.13995 0-51.56-7.27979-102-21.69971-150.61005z" fill="#fff" opacity=".2"/><path d="m541.23781 543.33147v.37012c0 29.45996 2.91016 58.23999 8.47021 86.07007 2.27979 11.46997 5.02002 22.78003 8.18994 33.90991 4.47998 15.75 9.81982 31.14014 15.96973 46.11011.91016 2.21997 1.84033 4.42993 2.80029 6.62988 3.02979 7.07007 6.25 14.04004 9.6499 20.90991 1.06982 2.17017 2.16016 4.33008 3.27002 6.48022.48975.96997 1 1.93994 1.51025 2.8999 3.92969 7.51001 8.07959 14.88989 12.43945 22.13013 39.99023 66.50977 97.17041 121.52002 165.40039 158.85986 9.18994 5.03003 18.58984 9.75 28.16992 14.12012 19.9502 9.11987 40.7002 16.77002 62.11987 22.83984h.01001c.42017.12012.83008.23999 1.25.36011 5.14014 1.43994 10.32007 2.79004 15.53003 4.04004.53003.12988 1.06006.26001 1.58008.37988.47998.12012.95996.22998 1.42993.34009 9.52002 2.21997 19.16016 4.11987 28.91016 5.69995.47998.09009.94995.15991 1.42993.22998 2.09009.34009 4.17993.65991 6.27002.95996 5.01001.72998 10.03979 1.36011 15.09985 1.90991.27002.03027.53003.06006.79004.09009 7.70996.83008 15.47998 1.46021 23.31006 1.88013 5.33008.27979 10.68994.47998 16.07007.56982 2.59985.06006 5.20996.08008 7.82983.08008 3.16016 0 6.32007-.03003 9.47021-.1001 2.42993-.0498 4.85986-.11987 7.27979-.21973 3.5-.13013 6.97998-.30029 10.4502-.52002.45996-.02002.91992-.05005 1.37988-.09009 2.52002-.15991 5.04004-.34009 7.55005-.55005 3.6499-.29004 7.30005-.64014 10.92993-1.03003.8501-.09009 1.69995-.17993 2.55005-.28003 14.01001-1.58008 27.84009-3.81982 41.41992-6.69995 8.06006-1.69995 16.04004-3.63013 23.92993-5.77002 78.18018-21.23999 147.66016-63.59985 201.92017-120.59009 8.21997-8.63989 16.09985-17.60986 23.59985-26.8999 6.49023-8.03003 12.7002-16.29004 18.62012-24.78003 4.02002-5.76001 7.8999-11.62988 11.6499-17.59009 16.62012-26.45996 30.47998-54.81982 41.18994-84.68994 3.44019-9.57983 6.55005-19.31006 9.31006-29.18994.42017-1.44995.82007-2.90991 1.22021-4.37012 1.43994-5.35986 2.77979-10.75977 4.02979-16.19971.16016-.72021.32007-1.44019.47998-2.16016 3.29004-14.71997 5.84009-29.72998 7.6001-44.96997 1.92993-16.67017 2.91992-33.61987 2.91992-50.80005 0-77.28003-20.04004-149.88989-55.20996-212.8999-2.65991-4.78003-5.41992-9.5-8.26001-14.17004v-.01001c-39.48999-64.89001-95.35986-118.68005-161.8999-155.63-62.83008-34.91003-135.15991-54.79004-212.13013-54.79004-1.91992 0-3.83984.01001-5.75.04004-13.77979.16992-27.3999.98999-40.83984 2.41992-23.80005 2.51001-47.03003 6.94006-69.53003 13.12012-2.30005.62988-4.58032 1.28003-6.86011 1.94995-23.56006 6.88-46.29004 15.68994-68.02002 26.26001-145.81982 70.85999-246.35986 220.35999-246.5 393.33984z" fill="#397c6f"/><path d="m768.93801 927.70159c9.18994 5.03003 18.58984 9.75 28.16992 14.12012-9.24023-13.12012-14.91016-26.78003-13.12988-39.45996 2.3999-17.07007 22.56982-48.62012 130.44971-68.52002.44019-.08008.87012-.15015 1.31006-.24023l-1.3999-10.48975v-.05005l-.16016-1.26001-.03979-.29004-1.19995-8.8999c-5.76025 1.0498-11.34009 2.1499-16.77002 3.27979-.06006.02002-.11011.03003-.17017.04004-81.94995 17.25-124.48999 44.45996-129.89966 82.98999-1.37012 9.77002-.17041 19.42993 2.83984 28.78003z" fill="#fff"/><path d="m1181.94784 862.83714c47.22619 0 106.41747-9.95368 176.7331-40.63536l-7.24791-16.60764c-97.33606 42.47746-171.7204 42.50903-216.96102 35.06887-48.90762-8.04845-75.28818-26.32604-75.54928-26.50968l-10.49312 14.76841c2.93245 2.08887 49.08838 33.9154 133.51822 33.9154z" fill="#fff"/><path d="m914.18801 805.14153.12988 16.43018.01001.81982.01001.67017v.57983l.08984 10.2002v.55981l1.21021 142.27002c5.01001.72998 10.03979 1.36011 15.09985 1.90991.27002.03027.53003.06006.79004.09009 7.70996.83008 15.47998 1.46021 23.31006 1.88013 5.33008.27979 10.68994.47998 16.07007.56982 2.59985.06006 5.20996.08008 7.82983.08008 3.16016 0 6.32007-.03003 9.47021-.1001 2.42993-.0498 4.85986-.11987 7.27979-.21973 3.5-.13013 6.97998-.30029 10.4502-.52002.45996-.02002.91992-.05005 1.37988-.09009 2.52002-.15991 5.04004-.34009 7.55005-.55005 3.6499-.29004 7.30005-.64014 10.92993-1.03003.8501-.09009 1.69995-.17993 2.55005-.28003 14.01001-1.58008 27.84009-3.81982 41.41992-6.69995l-5.05005-129.32983-.0498-1.37012-.12012-2.87988-.27002-7.06006-.04004-1.1001-.12988-3.21997-.04004-.95996-.01001-.3501-.03003-.91992-.01001-.25-.01001-.09009-.03003-.79004v-.09985l-.25-6.17993-.73999-19.11011-115.29004 5.55005-.5.02002-33.00977 1.56982z" fill="#fff"/><path d="m914.33828 821.56267 112.64248 107.84391 44.68318-104.81589-101.08703-17.13199z" fill="#1c75bc"/><path d="m1047.65798 829.25164c.28979-.09009.57983-.17017.86987-.26001 1.81006-.54004 3.51001-1.05005 5.11011-1.51001l1.55005-3.47998c-1.11011.04004-2.22021.07983-3.33008.09009-.64014.00977-1.28003.02002-1.91992.02002zm-107.92017-11.15015 13.29004 12.57007.01001.01001 69.75 65.98999 28.62012-64.18994v-.01001l.55981-1.23999 1.47021-3.28003.19995-.46997 1.55005-3.47998.90991-2.05005 1.22998-2.75-1.97998-.02002-16.48999-.1499h-.04004l-50.15991-.46997-48.92017-.46021zm12.05005 4.86011 63.92017.59009 34.33984.33008-.10986.22998-2.28003 5.13989-.06006.13013-1.77002 3.95996v.00977l-24.63989 55.26025-59.72998-56.51025c-.01025 0-.01025-.00977-.01025-.00977l-9.65991-9.13013zm95.87012 6.29004c.28979-.09009.57983-.17017.86987-.26001 1.81006-.54004 3.51001-1.05005 5.11011-1.51001l1.55005-3.47998c-1.11011.04004-2.22021.07983-3.33008.09009-.64014.00977-1.28003.02002-1.91992.02002z" fill="#fff"/><path d="m1270.93507 500.48795-56.94365-150.06134 8.15811-41.63954-133.1534-46.76053-114.42088 62.6476-91.53166-61.64412-1.51443 4.31243-5.15495-1.8103-6.33588 18.04181-15.47505 74.00986-77.0205-16.73762-15.90967-5.58712c2.70427 18.82842-3.57982 36.85157-16.71732 51.5395l-.27232 49.34312 2.89567 221.34755 161.40041 104.42156 164.79197-1.48309 150.29134-124.34405 46.91219-135.59572z" fill="#fff"/><path d="m636.15773 610.53167c.37988 1.83008.82031 3.6499 1.33008 5.47998v.01001c1.32031 4.84985 3.0498 9.66992 5.22998 14.41992-.02002-.38989.28027-6.78003 1.39014-15.54004.25-2.05981.5498-4.22998.89014-6.51001v-.00977c2.1499-13.91016 6.13965-30.98022 13.35986-40.41016l.3999-.40991.02002-.02002 1.06006-1.17993c.12988-.15015.25-.28027.37988-.44019l.01025-.01001c.47998-.51001 1-.97998 1.5-1.44995.08008.54004.02979 1.08008-.11035 1.63013 0 .00977-.00977.02979-.00977.04004 0 .11987-.06006.25-.08984.34985-.91016 5.36011-3.23047 20.86987-3.64014 40.11987v.02002c-.30029 14.88013.52979 31.97021 4.0498 48.33008l-2.25-1.65991c2.04004 2.57983 3.78027 5.32983 5.22998 8.28003l.44043.81006c6.88965 2.15991 13.59961 4.92993 19.96973 8.31982-.37988-2.58984-.7002-5.19995-.93018-7.81982v-.01025c-.6001-6.37988-.75977-12.73975-.25-18.52002v-.00977c.14014-1.65015.33008-3.26025.59033-4.79004v-.02002c.66992-4.04004 1.72998-7.64014 3.27979-10.57007.72998 4.32007 1.52979 8.6001 2.41016 12.88989v.01025c1.1499 5.72998 2.43018 11.42993 3.83008 17.10986v.01001c1.77002 7.13989 3.71973 14.23999 5.8501 21.30005 2.46973 1.65991 4.82959 3.44995 7.07959 5.37988 14.08008 12.13013 27.39014 24.70996 40.1499 37.87012 8.18018 2.6001 15.95996 5.43994 24.15039 8.0498 31.75 16.39014 53.75 29.69019 85.68994 41.63013 5.62988 1.90991 11.57983 3.90991 17.84985 5.96997 6.05005 1.7002 12 3.68018 17.94995 5.68994 18.24023 5.9502 36.17017 12.09009 54.22998 18.5.17017.06006.33008.12012.5.18018 2.59009.91992 5.19019 1.83984 7.79004 2.77979 2.4502 1.06006 5 1.75 7.47021 2.78027.1499.03979.27979.09985.42993.13989h.01001c.01001 0 .01001.01001.01001.01001h.01001c8.33984 2.96997 16.94995 6.03003 25.23999 9.30005.25.08984.47998.18994.71997.28003l1.23999.35986c3.20996 1.19995 6.52002 2.14014 9.84985 2.72998 5.05005.82007 10.14014 1.37012 15.24023 1.62012 3.6499.21997 7.31982.27002 10.97998.17993 3.36987.22998 6.81982.17993 10.55981.18994 2.17017-.18994 4.34009-.1499 6.48999.11011 2.07007.06982 4.14014.1001 6.2002.08008.63989 0 1.27979-.01025 1.91992-.02002 1.10986-.01025 2.21997-.05005 3.33008-.09009 2.93994-.11987 5.85986-.32007 8.78979-.61011h.04004c.11011 0 .22998-.02002.34009-.04004 2.6499-.25977 5.30005-.57983 7.93994-.97998-.97998.24023-2.77002.68018-5.47998 1.40015h-.01001c-.83008.21997-1.73999.45996-2.73999.73999-.01001 0-.03003.01001-.04004.01001-2.75.75-6.19995 1.72998-10.38989 2.95996-1.6001.45996-3.30005.96997-5.11011 1.51001-.29004.08984-.58008.16992-.86987.26001-.93018.28003-1.89014.57007-2.89014.88013.94019-.26025 1.89014-.52002 2.83008-.75.36011-.1001.71997-.19019 1.09009-.28027 1.56982-.41992 3.15991-.7998 4.75-1.1499 3.52979-.83008 7.06982-1.54004 10.62988-2.15991.01001-.01001.03003-.01001.04004-.01001 2.51001-.4502 5.03003-.84009 7.56006-1.18994 1.75977-.24023 3.68994-.44019 5.65991-.63013.81006-.07983 1.61987-.1499 2.42993-.22998.96997-.11987 1.87012-.21997 2.83008-.22998l-.23999-.38989c2.57007-.66016 5.15991-1.32007 8.07007-1.87012 5.92993-1.39014 11.77002-3.31006 17.33984-5.81006h.01001l.01001-.02002c1.19995-.67993 2.3501-1.04004 3.54004-1.72998 17.76001-8.42993 44.97998-26.22998 69.94995-60.68994 0 0-12.42993 41.05005-19.54004 46.94995 1.94019-.84009 58.19995-32.11011 74.39014-77.92993-.31006 1.27002-10.36011 42.05005-14.88013 49.91992 1-.72998 64.72021-48 88.32007-115.85986 0 0-2.09009 24.75-5.09985 29.42993 1.0498-.21997 35.26978-13.82007 41.80981-55.20996 1.82007-11.52002 1.5-25.19995-2.28003-41.34009-1.61987-6.91992-3.87988-14.29004-6.86987-22.12988 1.34985.37988 2.67993.81982 3.95996 1.33984 9.16992 3.59009 16.80005 10.3501 21.52002 19.1001-.1001-1.73999-3.42017-46.3501-40.32007-88.18994-5.33008-6.04004-11.35986-12.03003-18.18994-17.82007-.36011-.27002-.68994-.55005-1.04004-.84009l-.1499-.11987c-.07007-.06006-.13013-.11011-.20996-.17017-2.97998-2.46997-6.09009-4.92993-9.39014-7.30981-.27002-.21997-.54004-.39014-.81006-.6001 0 0 9.59009.40015 19.20996 1.92993 7.05005 1.12012 14.09009 2.86011 17.41016 5.51001-8.94995-12.86987-19.80005-24.19995-32.08008-33.6499-11.75-9.03003-24.81982-16.36011-38.83984-21.67004l-.61011-5.93005-.19995-1.94995-.66016-6.31006v-.00989l-1.52002-14.67004-.90991-8.8999-1.16992-11.2301-3.95996-38.09998-.19019-1.73999 36.40015 13.18994s-1.05005-9.83997-20.97998-25.04004l-42.22998-14.83984h-.01001v-.01001l-3.39014-1.18005c-1.26001 1.96997-2.58008 3.87-4.06006 5.68005-1.41992 1.85986-3.05981 3.61987-4.82983 5.16992 0 0-10.34009-9.72998-24.11011-21.75-.40991-.37-.83984-.75-1.28003-1.14001l-92.91992-32.65002h-.02002l-2.55005-.87988h-.02002l-20.62988-7.26001.38989-1.09009v-.01001l5.48022-15.59998c-29.42017.64001-58.75 3.67004-87.69019 9.08997.90991-.78003 26.67993-22.02002 54.44019-24.61987-4.52002-1.16016-9.16016-1.87012-13.82007-2.1001-43.42993-3.59998-86.58008 9.86011-120.31006 37.47998-.66992.19006-1.29004.61011-1.72998 1.22998-.43994-.15991-.83008-.36987-1.17993-.68994-5.14014-3.52002-10.41016-6.89001-15.72021-10.17993l-2.32983 6.65991-3.88013 11.07007h-.01001v.01001l-.45996 1.30994-3.01001-1.05994h-.02002l-2.09985-.73999-.42993 1.20996s0 .01001-.01025.01001l-3.23975 9.23999v.01001l-.31006.90991-2.34009 6.64014-.01001-.01001-8.85986-3.1001-2.25-.79004-24.25-8.52002c3.04004 2.1001 5.6499 4.01001 7.68994 5.52002 3.3501 2.63013 5.31982 4.21008 5.31982 4.21008-7.3999 3.85999-14.59961 8.39001-21.43994 13.23999-12.95996 9.19006-24.64014 19.54993-34.10986 28.77991-5 4.87012-9.37988 9.44006-12.99023 13.36011l-1.60986 4.58997-1.94971-.68005c-5.03027 5.65015-7.89014 9.22998-7.89014 9.22998-1.51025-1.55994-2.93994-3.17993-4.34033-4.82983-.36963-.44006-.73975-.89014-1.09961-1.32007 0 .18994 0 .38-.01025.57996 0 .31006-.00977.63-.00977.94006v.10999c-.01025.22998-.02002.45996-.03027.69006-.00977.19995-.02002.41992-.02979.62988-.01025.5-.04004.98999-.07031 1.48999-.00977.31006-.04004.62012-.06982.93005v.02002c-.02002.21997-.04004.43005-.06982.66003 0 .11987-.02002.25-.02002.37988 0 .04004 0 .08008-.01025.13013 0 .04993 0 .09985-.00977.1499-.01025.05005-.01025.1001-.02002.15002-.01025.01001-.01025.03003-.01025.04993 0 .04004-.00977.1001-.02002.14014-.02002.18994-.03955.35986-.06006.53992-.00781.09717-.01855.19995-.03223.29968-.00439.03394-.00732.06787-.01221.10181-.00635.05945-.0083.11902-.02539.17847 0 .04004-.00977.09009-.00977.12012-.01025.05994-.01025.11987-.02002.17993-.03027.26001-.07031.51001-.11035.76001 0 .03003-.00977.05005-.00977.08008v.01001c0 .03992-.00977.07983-.03027.11987-.02979.21997-.05957.42004-.10986.63013-.08984.58984-.18994 1.16992-.2998 1.75-.05029.22998-.09033.44995-.13037.67993-.12988.64001-.25977 1.28003-.41992 1.91992v.02002c-.00977.04004-.01953.08008-.02979.12012-.06006.23999-.12012.47998-.18994.71997 0 .02002 0 .04004-.01025.05994 0 .02002 0 .04004-.00977.05005-.02979.08997-.05029.17004-.06982.25989-.12012.45007-.25.89014-.37012 1.33008-.16016.54004-.31006 1.06006-.47998 1.59009-.05029.16992-.1001.34985-.16016.5199-.01025.04004-.02002.06995-.02979.09998-.05029.15002-.1001.29004-.16016.44006-.00977.03992-.02002.06995-.03027.10999v.01001c-.06982.23999-.1499.46997-.23975.70996-.01025.03003-.02979.07007-.04004.1001-.10986.30994-.22021.62988-.33984.93994-.05029.14001-.1001.28003-.16016.41992v.01001c-.08008.21008-.16016.43005-.25.63013-.08008.20996-.16992.41992-.26025.61987 0 .03003-.00977.06006-.01953.08008 0 .01001 0 .02002-.01025.04004-.02002.10986-.06982.22998-.12012.31995-1.20996 2.98999-2.6499 5.87-4.35986 8.66003-.00977.01001-.00977.02002-.02002.03003-.04004.04993-.06982.10986-.10986.15991-.01025.02002-.02002.04004-.04004.06006-.37988.67993-.79004 1.33997-1.24023 2-.01953.03003-.02979.04004-.04004.06995l-.00977.01001c-.37012.56995-.75 1.15002-1.16992 1.71008-.22998.35986-.49023.70996-.75 1.05994l-.01025.01001c-.03955.04993-.07959.10999-.11963.16003-.14014.20996-.29004.40991-.4502.60986-.02002.04004-.0498.07007-.08008.11011-.02002.03003-.04004.06995-.06982.09998-.53027.79993-1.13037 1.55994-1.79004 2.29993-.02979.03003-.05029.06006-.08008.09009-.04004.04004-.08008.07996-.10986.12-.04004.04993-.06006.07996-.11035.12-.04004.07007-.07959.13-.13965.18994-.05029.07007-.1001.13013-.15039.20007-.53955.73999-1.15967 1.44995-1.80957 2.12l-.01025.01001-.0498.05005-.03027.02991c-1.60986 1.83997-3.33984 3.63-5.20996 5.34998-1.17969 1.11011-2.43994 2.08008-3.70996 2.97998.47998 1 .9502 1.96008 1.41992 3.01001 0 0-77.91992 47.52002-98.92969 107.1001 0 0 44.04004-52.5 68.97998-63.37012-2.22021 2.20996-87.97021 89.47998-71.28027 168.62012zm471.23022-213.62012v.01001c5.59985 11.62012 10.28003 23.89014 13.82983 36.16003.11011.38.20996.76001.32007 1.14001 4.01001 14.12988 6.5 28.17993 7.07007 41.1001 2.80005 61.41992-32.20996 102.37988-83.09009 104.33984-50.55981 2.04004-97.79004-35.06006-100.59985-96.43994-1.72021-37.41992 11.5-85.58997 33.56982-118.02002 1.87012-2.75 3.80005-5.37 5.79004-7.88 1.78003-2.22998 3.6001-4.37 5.47998-6.38 11.86011-12.84998 25.55005-21.07996 40.41992-21.77002 30.40015-1.25 58.78027 29.6001 77.21021 67.73999z" fill="#e73c31"/><path d="m738.69066 575.92337c2.86132.79482 109.08367 133.72379 109.08367 133.72379l259.99282 105.782c-149.70823 68.00044-325.75076-55.21434-325.75076-55.21434 14.70052 25.80362 35.63205 47.5126 60.88268 63.14391-144.05589-44.81043-157.14345-148.10123-157.14345-148.10123-1.99596 24.44496 11.3744 79.87019 11.3744 79.87019-55.21306-62.59633-38.15055-189.36062-38.15055-189.36062s76.84989 9.36143 79.7112 10.15625v.00005z" fill="#e73c31"/><path d="m1189.75783 607.74163s23.73999-26.27002 32.22998-50.6499c8.16016-24.44019-38.19995-11.65015-79.97998.72998-41.79004 12.35986 47.75 49.91992 47.75 49.91992zm-426.22021-94.09009c37.96045-79.23999 78.56055-29.53003 80.86035-26.61987-45.57031-77.13013-78.27002 12.28003-78.27002 12.28003z" fill="#fff"/><ellipse cx="997.64731" cy="511.93636" fill="#e73c31" rx="19.46787" ry="33.98632" transform="matrix(.99389624 -.11031892 .11031892 .99389624 -50.38688 113.18413)"/><ellipse cx="1161.46467" cy="494.71925" fill="#fff" rx="19.46787" ry="33.98632" transform="matrix(.97693502 -.21353682 .21353682 .97693502 -78.85161 259.42616)"/><path d="m620.87364 615.58095c-26.31389 10.09483-45.25179 24.51786-42.29917 32.21437l24.85267 64.78271c2.95262 7.69651 26.6779 5.75261 52.99179-4.34222s45.25179-24.51786 42.29917-32.21437l-24.85267-64.78271c-2.95262-7.69651-26.6779-5.75261-52.99179 4.34222z" fill="#f3bb48"/><path d="m614.13005 649.0856 24.85568 64.79056c-18.61126 4.80489-33.28591 4.66087-35.56601-1.2826l-24.85543-64.7899c2.2801 5.94347 16.90141 6.10871 35.56576 1.28194z" fill="#221f1f" opacity=".2"/><ellipse cx="626.21998" cy="629.51699" fill="#8e6a2b" rx="33.10127" ry="9.68179" transform="matrix(.93365315 -.35817844 .35817844 .93365315 -183.93172 266.06503)"/><path d="m826.87901 587.87888-152.55616 60.34337 6.20631 16.17735 157.76951-62.40485c-4.39719-4.1308-8.23575-8.9111-11.41966-14.11586z" fill="#f3bb48"/><path d="m895.56932 681.82869c-85.55728-65.54609-91.06768-186.2522-91.43853-187.3826l.08832-.31795c.02443-1.79 1.49522-3.22129 3.28529-3.1969 1.78997.02436 3.22129 1.49522 3.19686 3.28522.053 1.04211 5.72225 118.71019 88.68319 182.50773 53.37615 40.85373 126.9231 51.00996 218.41534 29.85048 1.66917-.16982 3.23531.83281 3.7798 2.41977.58558 1.69488-.31364 3.54355-2.00852 4.12913-.06.02075-.12056.03972-.18166.05687-85.61056 19.71115-156.19024 12.43394-209.51342-21.21343-4.87485-3.40891-9.7497-6.81777-14.30665-10.13838v.00005z" fill="#fff"/><path d="m1196.11722 260.57853-67.90712-10.70575-170.36678 60.6602-49.32562-19.99649-19.99044-8.12774-19.36825-7.83323-4.60943-1.88641-11.50776-4.65217c2.07647-17.22601 6.47245-34.09539 12.89722-50.21454 14.48667-36.24742 39.24805-68.46596 71.02842-91.19055 45.89388-32.78136 105.78119-45.25348 160.95014-33.51977 16.71241 3.5383 33.08218 9.24876 47.63358 18.17909 24.28328 14.83164 42.88456 38.5549 51.89218 65.55618 6.1027 18.3025 7.77111 38.02765 5.18599 57.13762-.7151 5.51741-1.8401 11.00559-3.30516 16.37389-.15891.67028-.35192 1.32811-.54472 1.98601-.21671.72599-.42161 1.41835-.63847 2.14475-.60252 2.04173-1.28517 4.09449-2.0238 6.08889z" fill="#fff"/><path d="m888.62962 280.06817-15.98708 11.00584-23.4266 16.18844c-46.28275 16.81665-77.74356 46.95957-95.16101 67.90164-12.00597 5.49918-23.44262 12.95937-37.07295 9.15936-13.63034-3.80001-24.41372-15.27105-31.48487-27.07784-15.96402-26.79297-19.79107-60.55307-10.13841-90.1853 22.74625-69.86444 113.89292-97.92836 175.16722-59.86486 2.90049 1.78041 5.65382 3.74734 8.21511 5.80406 2.32869 1.86205 4.51286 3.81447 6.54987 5.95342 15.89899 15.86949 24.10349 37.6289 23.33872 61.11524z" fill="#fff"/><path d="m874.85484 299.80241c-8.99192 1.99941-17.52516 4.54183-25.61992 7.46767-46.32299 16.81545-77.76581 46.95529-95.19943 67.87983-11.19132 13.37547-16.6466 23.03502-16.6466 23.03502s-8.84057-.79619-11.97006-12.5537c-.04397-.09192-.04229-.20558-.08646-.29757 20.97642-28.61999 70.45924-79.37311 146.81032-96.3014l.50309 2.04854 2.20905 8.72162z" fill="#414042"/><path d="m1258.18261 424.33326s-159.52417 77.68641-351.06678-123.00675l194.21463 8.30741 153.91222 85.84982 2.93992 28.84951z" opacity=".4"/><path d="m1363.96296 354.17124c2.0934-12.5973-2.38362-25.63013-9.93726-35.88496-7.54169-10.28887-17.9387-18.10396-28.74005-24.87656-38.97196-24.45931-84.56479-36.91798-130.36356-41.50266-45.75257-4.60669-91.95725-1.61704-137.7757 2.88346-53.19485 5.27187-106.56018 12.66118-157.61565 28.15838l-24.82979-6.84968-1.67946 4.78237c3.21713 2.16877 6.8356 4.6016 10.66226 7.1607 12.33899 8.2681 26.64146 17.79838 35.69349 23.46048 32.35755 20.34063 88.86595 52.40958 155.31445 75.21041 40.14513 13.83041 83.96959 24.25414 128.25318 26.62606 19.29618.20576 38.65007-1.05815 57.77592-3.73958 15.24164-2.17316 30.37194-5.22574 45.25511-9.20591 12.65057-3.38853 25.30201-7.54107 36.135-14.89192 10.79915-7.36273 19.65088-18.42699 21.85208-31.33059z" fill="#414042"/><circle cx="882.10331" cy="292.54267" fill="#ffde17" r="26.51004"/><circle cx="882.10331" cy="292.54267" fill="#f4f2a2" r="10.55083"/><path d="m1302.69589 480.11568c.47252.39537.91093.7783 1.39555 1.13922l-.13616-.04782-1.25938-1.0914z" fill="#a7a9ac"/><path d="m865.48991 219.11547c-2.47626 4.16623-10.8729 19.34592-11.82779 31.1939 0 0-3.81426-20.70246 5.27792-37.14732 2.32869 1.86205 4.51286 3.81447 6.54987 5.95342z" opacity=".4"/><path d="m1355.05722 813.89869c3.02013 9.98885 8.54497 27.28329 20.36041 29.74609 22.77851 4.81043 4.7991-29.84115.07573-40.05879 8.67405 11.38958 17.55101 22.70128 27.89543 32.64345 5.51628 5.30178 11.20463 10.7552 18.02535 14.35952 4.94168 2.61137 17.37479 7.56618 21.05289.45962 3.65158-7.05533-7.01392-18.42872-11.38036-23.10789-12.26759-13.14618-30.80227-22.18583-48.77721-23.43636 13.5717.96745 27.17649 1.61594 40.78623 1.46576 8.62911-.09522 17.30833-.44392 25.86059-1.67233 6.60363-.94852 16.48702-1.98239 20.94831-7.79734 12.58554-16.41266-31.95375-17.23306-38.92402-17.3821-27.32094-.58417-47.59201 5.40445-73.21676 14.23955l-1.81682.62642c-4.38499-12.78577-17.2029-53.71012-35.88446-50.12946-24.13203 5.45991 15.49917 53.48111 29.64481 57.99954l5.34989 12.04433z" fill="#e63d31"/><circle cx="295.06819" cy="287.24238" fill="#27564d" r="182.0311"/><path d="m201.32499 308.49058-46.76341-62.35313s-10.60355 97.38485-11.56349 99.68334c-.96108 2.29606 58.3269-37.33021 58.3269-37.33021z" fill="#f1f0d9"/><path d="m367.71932 234.58443c-2.45881 4.78632-3.58642 9.85766-3.53806 14.81019 2.41182 9.96899 9.52103 19.20922 20.00714 24.4632 6.66863 3.33746 13.73684 4.58684 20.37022 3.99404 8.01227-2.58189 15.10115-8.25184 19.27286-16.32123 8.00355-15.62297 1.9684-34.33918-13.54135-41.82244-15.4957-7.4241-34.53591-.78748-42.57082 14.87623z" fill="#f1f0d9"/><path d="m410.57355 246.61211c-.98602 6.03981-6.70793 10.13432-12.78042 9.14293-6.0732-.99012-10.19816-6.69124-9.21265-12.73095.98502-6.03952 6.70786-10.13473 12.78024-9.14394 6.07237.99131 10.19758 6.69092 9.21284 12.73197z" fill="#463f37"/><circle cx="397.70797" cy="250.19384" fill="#fff" r="3.92873"/><path d="m417.35161 290.23323s17.69198-6.81248 21.27308-1.09476c9.83838 15.71748-103.72312 158.14845-239.2984 19.437 0 0 122.40425-233.1512 218.02532-18.34223z" fill="#ffde17"/><path d="m298.30216 234.25921c-23.9886 21.52516-26.67448 56.12866-5.91075 77.35606 20.78528 21.119 57.06002 20.79882 81.12641-.77393 24.04831-21.51197 26.69648-56.15333 5.95897-77.28346-20.77102-21.1593-57.03897-20.81035-81.17463.70132z" fill="#231f20" opacity=".2"/><path d="m303.22893 230.8437c-21.72874 19.83431-23.23024 52.75867-3.26924 73.60493 19.97759 20.74333 53.7655 21.48844 75.56712 1.60744 21.78261-19.81568 23.24712-52.77873 3.31408-73.53259-19.96416-20.7824-53.74523-21.49457-75.61196-1.67977z" fill="#fff"/><path d="m375.52682 306.05607c6.6694-6.06638 11.41264-13.37141 14.23974-21.17591 2.05924-17.0657-3.68199-35.74261-17.06623-50.13959-8.51231-9.15196-18.87941-15.2602-29.64229-18.22047-14.09318-.6447-28.5453 4.09895-39.82911 14.32361-21.72874 19.83431-23.23024 52.75867-3.26924 73.60493 19.97759 20.74333 53.7655 21.48844 75.56712 1.60744z" fill="#f1f0d9"/><path d="m305.40234 299.18164c-18.69264-19.52127-18.56192-49.63398-.62565-69.67078-.5198.4378-1.04055.87364-1.54767 1.33256-21.72876 19.83422-23.23035 52.75934-3.26921 73.60476 19.97747 20.74397 53.76541 21.48892 75.56704 1.60785 1.33733-1.21611 2.57596-2.49513 3.75858-3.8056-21.82508 18.35959-54.41149 17.14971-73.88308-3.0688z" fill="#231f20" opacity=".2"/><path d="m282.70307 212.30725c-9.47557-21.61756-46.11461-26.73959-64.16169-13.30934-5.32185 3.84823-9.05715 15.11796.48687 16.18055 4.97868.71983 10.53257-2.54742 15.19477-3.98978 5.6411-1.69008 11.30147-2.9855 17.2133-3.30361 13.79266-.75429 21.80876 4.93611 30.24608 14.75484-.20674-.18605-.2263-.5822-.64223-.95525" fill="#ffde17"/><path d="m285.83131 220.27363c12.02383-20.31047-5.19748-53.05067-26.63606-59.86949-6.2289-2.07764-17.56198 1.46474-12.85558 9.83581 2.32386 4.46231 8.2169 7.06731 12.10896 10.01443 4.66165 3.59424 9.01587 7.43353 12.72721 12.04741 8.65862 10.7612 8.71858 20.59493 5.66984 33.17475.02807-.27558.33562-.5238.39759-1.07953" fill="#ffde17"/><path d="m278.83743 219.07072c-14.31039-11.3026-41.15033-1.4917-48.58067 14.22006-2.2313 4.55401-.68879 13.59453 6.20617 10.85541 3.65554-1.31988 6.254-5.563 8.91214-8.23954 3.23291-3.19828 6.62164-6.13643 10.53539-8.50112 9.13077-5.52129 16.66657-4.55018 25.98238-.92111-.2083-.04955-.3666-.31362-.78538-.41408" fill="#ffde17"/><g fill="#231f20"><path d="m245.20163 278.64895s-20.18709 9.16497-.74024 21.71853c0 0-14.2864-8.63881.32507-21.51567z" opacity=".2"/><path d="m260.03862 265.43495s-20.18639 9.16396-.74008 21.71938c0 0-14.28686-8.64136.32628-21.51766z" opacity=".2"/><path d="m272.6075 282.34296s-15.91297 7.22461-.58368 17.12191c0 0-11.26152-6.8125.2574-16.96249z" opacity=".2"/><path d="m256.1238 294.24874s-20.18864 9.16611-.74093 21.71954c0 0-14.28653-8.63949.32507-21.51567l.41587-.20386z" opacity=".2"/><path d="m235.63484 301.36107s-16.14406 7.32889-.59217 17.36816c0 0-11.42491-6.91122.26077-17.208z" opacity=".2"/><path d="m229.78899 278.22023s-16.14406 7.32889-.59217 17.36816c0 0-11.42491-6.91122.26024-17.20703z" opacity=".2"/><path d="m217.50036 298.46735s-12.31946 5.59147-.45045 13.25264c0 0-8.71776-5.27398.19787-13.13059z" opacity=".2"/></g><g clip-path="url(#a)"><path d="m133.13249 343.38201c-.04226-.01123-.07634-.02846-.11221-.04656l-.26956-.13589-.05539-.30722 1.16811-.18873-.58406.09436.33818-.48116c-.15368-.10436-.31603-.10563-.38041-.09178 1.88244-.41164 39.15284-19.46545 63.38431-31.93077l-.72632-.21528-54.30997 4.81891-.39217-22.2701 54.82227 16.2526 1.33693-.11863-53.13108-33.16693 1.62257-17.97184 53.95589 50.9216.2677-.02377c3.51267-1.8087 6.66158-3.4328 9.27007-4.78004l.52838-.2729 2.6205 5.13896-11.51133 1.02145 5.96935 3.72624-2.98597-.88519 3.62601 3.42215-.81218.86049-5.32741-5.02787-3.18409-.94387c-7.12915 3.66857-16.69201 8.58027-26.22045 13.44649-11.01732 5.62667-19.83231 10.09167-26.20005 13.27113-11.11655 5.55057-12.29678 5.99457-12.70762 5.88414zm9.27198-49.16088.34137 19.38581 50.06522-4.44229-50.40658-14.94352zm3.06061-19.24462 50.33769 31.42307-48.99955-46.24406zm63.88672 30.08846c-.94861.48974-3.1265 1.61347-6.16547 3.17909l7.44949-.66099z" fill="#aaa996"/></g><path d="m399.71847 341.08805c-95.13125 50.3627-196.07077-29.40188-200.42736-32.90503-.15358.28623-.23503.44141-.23503.44141 82.79699 84.7139 157.3804 64.56602 200.66238 32.46362z" fill="#231f20" opacity=".2"/><path d="m417.35161 290.23323c-41.27153-92.71456-87.53145-101.97274-126.78591-82.55145 8.50513-4.03824 74.19273-30.61674 125.302 83.97073 0 0 14.67263-6.29439 23.33546.31028.04151-1.16487-.14103-2.12471-.57846-2.82432-3.58111-5.71772-21.27308 1.09476-21.27308 1.09476z" fill="#fff"/><path d="m289.76871 204.22335c-.3412-18.34252-14.22232-38.61822-30.57346-43.81922-1.90307-.63436-4.28198-.73898-6.53565-.34596 9.77925 2.46308 29.13559 11.45666 37.10911 44.16519z" fill="#fff"/><path d="m218.54138 198.9979c-2.04321 1.47786-3.84454 4.05049-4.75779 6.71882 5.71578-6.51502 25.46322-23.37681 63.43288-1.52189-13.92656-14.56584-43.16137-16.74108-58.67508-5.19693z" fill="#fff"/><path d="m389.74372 258.62126c-1.21333 7.4322-8.25435 12.47065-15.72677 11.2507-7.47329-1.21837-12.54921-8.23381-11.3365-15.6659 1.2121-7.43185 8.25426-12.47115 15.72655-11.25195 7.47227 1.21985 12.5485 8.23342 11.33673 15.66715z" fill="#463f37"/><circle cx="383.24705" cy="257.73125" fill="#fff" r="4.71635"/><path d="m414.4377 418.1975 91.75212 44.63195-66.87457-75.72229z" fill="#27564d"/><path d="m1478.66869 450.5894c.02329.08151.04646.16299.0604.24286 1.75501 7.48738 7.74674 15.57903 17.46722 23.59099.84748.62244 1.65063 1.27516 2.44096 1.94477-.35894-.50167-.69749-1.00904-1.02859-1.50536-2.69939-4.05763-4.87751-8.52833-6.98681-12.85102-2.72645-5.60604-5.55178-11.40436-8.86022-14.58303-.08088-.08269-.16187-.16539-.24261-.24817-1.08544-1.10123-1.83991-1.39755-1.92196-1.42264-.42757.17036-1.71789 1.79894-.92838 4.8316zm-21.47438 39.84836c-.03373 2.74259 3.72645 8.03187 9.37574 11.53522l.25847.1645c7.65081 5.06637 16.88938 6.0522 28.17444 6.82505 5.30459.3614 9.40088 4.78795 9.33695 10.10047-.05461 5.31427-4.25706 9.65514-9.56795 9.89047-12.19951.55026-20.45206 1.39935-23.84942 8.02352-1.18066 2.27611-4.332 8.3099 9.6748 17.37914 4.34184 2.81357 9.74176 4.5145 16.06726 5.03902 8.97368.75278 18.44943-1.26489 27.77589-5.77028-6.48195-16.66266-10.1109-34.38965-10.34261-52.22986-.03885-2.76614.06401-5.46687.29404-8.12449-4.97347-4.07068-9.29895-8.55954-12.82623-12.98512 1.38962 3.3289.92353 7.29243-1.52465 10.25614-3.45524 4.16318-9.59216 4.84114-13.86545 1.5099-.76717-.58802-1.50459-1.18021-2.24204-1.77229-6.60354-4.68599-17.12746-7.04228-23.69862-3.03134-1.12669.65628-3.01768 1.94025-3.04063 3.18994zm227.60611 20.44574c-1.81011 16.18283-1.90875 29.5238-.85002 40.50716.25354.54931.45521 1.11771.60511 1.70533 2.61628 1.16754 5.26688 2.25464 7.90595 3.30106 12.74096 5.03053 25.25445 6.09232 36.17615 3.05419 6.116-1.69476 11.10356-4.3639 14.85364-7.94103 12.05028-11.49743 7.85041-16.85978 6.24682-18.8978-.48118-.62111-1.00607-1.16354-1.57121-1.64595-4.77606-4.04319-12.53188-3.32247-23.33849-1.7675-5.25477.75716-10.19358-2.72827-11.24029-7.93137-1.04489-5.21241 2.15588-10.33024 7.29051-11.6792 10.94249-2.84135 19.84152-5.53649 26.41883-11.93854.07166-.0733.1509-.13551.22258-.20892 4.90716-4.49758 7.61751-10.39262 7.07002-13.07101-.25948-1.23525-2.36521-2.1427-3.80262-2.6543-6.99673-2.64758-16.88727 1.62628-22.50804 7.4559-.60897.72461-1.22727 1.44746-1.86598 2.17613-3.57917 4.05308-9.737 4.53424-13.90953 1.07736-2.87913-2.53848-4.1485-6.24992-3.40631-9.7853-5.23026 9.90617-13.45236 20.59021-24.29713 28.2438zm26.45753-32.65061c.64166-.7957 1.32049-1.58429 2.03486-2.35654 8.02766-9.64995 12.42874-18.73788 12.76493-26.42018.00644-.08557.00358-.173.01003-.25857.21916-3.11299-1.3563-4.48009-1.70681-4.56535-.17239.04481-.86854.46359-1.72014 1.7599-.05652.09546-.12243.18915-.1976.28109-2.66244 3.74327-4.35397 9.96495-5.98816 15.98512-1.26718 4.6328-2.57511 9.43149-4.46706 13.89846-.22967.55483-.47066 1.11718-.73006 1.67607z" fill="#fff"/><path d="m1573.03402 492.87695c-23.79602 15.82166-53.43198-2.96538-67.09068-23.56657-5.99356-8.99896-9.7253-21.87732-17.24382-29.10595-10.46721-10.76943-23.1509-.20352-19.71506 12.92106 2.94438 12.53611 13.41249 23.30451 23.33858 31.02645-9.33676-8.2125-25.85096-12.44534-37.11166-5.56669-15.82977 9.18664-5.26648 24.86968 6.08595 31.90293 10.02649 6.63946 21.37997 7.67306 33.02998 8.46484-12.0439.53942-26.00458 1.17137-32.30096 13.41325-6.75809 13.0511 2.40162 23.4528 13.12198 30.39345 6.15982 3.9942 13.39955 6.00674 20.67183 6.6141 14.69971 1.23462 28.83235-3.45728 41.16165-11.24211 10.44691-6.59728 21.05881-14.10815 27.97847-24.55712 5.75346-9.28622 12.19746-26.14602 7.43302-36.66733l.64073-4.0303z" fill="#e63d31"/><path d="m1724.77554 613.34879s-68.57102 6.08218-47.44044-121.38894c21.1306-127.47182-154.42742-81.96687-153.22697 9.30301 1.20133 91.26972 97.47243 178.47351 200.66741 112.08593z" fill="#fff"/><path d="m1717.10389 612.84714c-17.27256-2.87745-56.44091-20.31123-39.76879-120.88729 16.61286-100.21533-88.33687-93.51544-133.39798-41.72233 1.35025-.73275 2.75753-1.36364 4.23459-1.87106 12.38567-4.25001 14.43101 8.5959 14.41083 17.81594 1.60352-5.43776 7.45135-10.0053 11.87844-13.18626 9.95829-7.15383 24.31732-10.1523 36.10455-6.18868 6.82775 2.2968 13.66017 8.86436 16.26472 15.47691 5.1109 12.9763 3.00592 29.79901.80213 43.21872-3.45178 21.03385-8.23937 42.03373-7.65812 63.50488.39374 14.52854 3.4433 30.15731 11.27647 42.61494 4.4224 7.03449 14.06626 13.55616 21.8475 16.02953 14.77734 4.68699 31.35885-.54996 45.2347-5.91005 6.2906-2.42989 12.72556-5.33929 18.77096-8.89525z" fill="#e63d31"/><path d="m1714.03562 615.18693c-.33839-4.40081-2.48662-8.68653-4.24007-12.66076-1.9145-4.34323-3.99332-8.77131-4.82926-13.47492-.68109-3.83567-.9384-8.67281 1.95282-11.74417 3.06546-3.25985 5.83645.76338 6.80815 3.64303 1.31609 3.90171 1.67961 8.24815 1.58739 12.34366-.09474 4.19825-.66945 8.36735-.8181 12.56447.15542-4.3919 2.06599-9.05393 3.88233-12.99235.84659-1.8387 2.53769-5.5573 5.00368-5.6641 4.95765-.20982 1.20468 9.57686.48867 11.43836-1.70105 4.41954-3.27941 8.8719-4.77744 13.36665 2.08934-1.62183 3.64845-3.92667 5.51713-5.78495 1.54212-1.53222 3.0906-3.80994 5.41642-4.19974 1.77324-.29364 2.83334.87434 2.76417 2.60702-.14209 3.68768-3.59822 6.01728-6.43737 7.73862-3.59625 2.18336-7.23244 4.39684-11.17354 5.91062z" fill="#e63d31"/><path d="m1549.17105 505.14161 28.24242 3.01665-16.7779 25.39701z" fill="#ef6623"/><path d="m1677.73997 572.57077s-36.50852-11.2342-36.67517-61.71105l33.7986 44.71723s-.09276 5.29428 2.87658 16.99382z" fill="#ad2126"/><path d="m1641.2227 508.30771c26.32499 11.11731 51.94783-12.85459 61.53633-35.63778 4.21419-9.95486 5.48394-23.30388 11.52801-31.80434 8.27997-12.52829 22.711-4.50779 21.77469 9.02749-.56181 12.86494-8.84178 25.39305-17.16119 34.82476 7.64801-9.80518 23.08737-17.03577 35.42907-12.374 17.26367 6.08279 9.80257 23.45797-.04512 32.48109-8.61388 8.38847-19.57835 11.51789-30.87802 14.46121 11.9328-1.71285 25.76854-3.68605 34.23176 7.16579 9.07146 11.56985 2.00254 23.49355-7.237 32.30784-5.31292 5.07027-12.0511 8.39159-19.08129 10.34332-14.21335 3.94837-28.97428 1.96706-42.53417-3.38919-11.49062-4.53641-23.31728-9.94396-32.0574-18.92232-7.38256-8.05483-18.07543-27.09433-15.3512-38.31775l-.15448-.16611z" fill="#e63d31"/><path d="m1555.77669 494.47284c-.82511-.09627-1.55173-.68367-1.78158-1.5386-1.21665-4.50908-4.49343-11.84171-8.10618-12.30441l-.03252-.00379c-2.32902-.27173-5.27621 2.49496-8.30965 7.80183-.57399 1.00009-1.85123 1.35371-2.85945.77876-1.00416-.57447-1.35323-1.8553-.77876-2.85945 4.08476-7.14942 8.14938-10.38313 12.42534-9.88425l.06097.00711c7.57364.97839 11.25218 13.90744 11.64902 15.37924.298 1.11831-.36312 2.2648-1.4819 2.56686-.26339.06815-.52921.08657-.78528.0567z" fill="#808083"/><path d="m1574.49264 495.78716c-.17884-.02087-.35484-.06612-.52847-.1317-1.07861-.43072-1.60429-1.64563-1.17811-2.72065 3.06245-7.70953 6.65869-11.48404 11.00369-11.54153 7.53456-.13443 13.06338 12.19063 13.66216 13.59123.45692 1.06269-.037 2.29461-1.10328 2.74699-1.05721.4452-2.2982-.04154-2.74699-1.10328-1.8428-4.29786-6.28023-11.11083-9.76123-11.04317-2.35192.03047-4.89184 3.19076-7.15558 8.89231-.3606.90139-1.27358 1.41698-2.19218 1.30981z" fill="#808083"/></svg>