<svg viewBox="0 0 1920 1080" xmlns="http://www.w3.org/2000/svg"><path d="m1468.35124 393.09047c-.22998-.77997-.47021-1.56995-.7002-2.34998-.23975-.77997-.46973-1.56-.71973-2.34003-3.57031-11.64996-7.55029-23.18994-11.9502-34.60999-.22998-.62-.46973-1.23999-.70996-1.84998-1.87012-4.82001-3.82031-9.62-5.83984-14.39001-5.68018-13.44-11.89014-26.58997-18.62012-39.44-.31006-.59998-.62012-1.19-.93018-1.78998-.31006-.58002-.61963-1.17004-.93994-1.75-24.52979-46.02002-55.68994-88.04004-93.00977-125.35004-48.63037-48.63995-105.27002-86.82996-168.34033-113.5-65.29004-27.62-134.6499-41.62006-206.14014-41.62006-71.5 0-140.84961 14.00006-206.1499 41.62006-55.2998 23.39001-105.65967 55.63-150.00977 96.02002-.93994.84998-1.87012 1.70001-2.80029 2.58002-.17969.14996-.35986.31-.54004.47998-.95996.89001-1.90967 1.78003-2.85986 2.67999-2.31006 2.16003-4.60986 4.35004-6.87988 6.57001-1.76025 1.71002-3.5 3.42999-5.23975 5.16998-.22021.22003-.43018.42999-.64014.65002-7.06006 7.07001-13.89014 14.31-20.49023 21.71997-1.7998 2.01001-3.56982 4.03003-5.32959 6.06-1.55029 1.78003-3.08008 3.58002-4.59033 5.38-.93994 1.11005-1.87988 2.23004-2.7998 3.35004-32.81006 39.60999-59.51025 83.56-79.6499 131.16998-27.62012 65.29999-41.62012 134.65002-41.62012 206.15002 0 71.48999 14 140.84998 41.62012 206.13995 26.66992 63.07001 64.85986 119.71002 113.5 168.34003 48.62988 48.64001 105.26953 86.83002 168.32959 113.5 65.30029 27.62 134.6499 41.62 206.1499 41.62 71.49023 0 140.8501-14 206.14014-41.62 63.07031-26.66998 119.70996-64.85999 168.34033-113.5 48.63965-48.63 86.83008-105.27002 113.5-168.34003 27.61963-65.28998 41.61963-134.64996 41.61963-206.13995 0-51.56-7.27979-102-21.69971-150.61005zm-21.76025 355.97003c-26.57959 62.83002-64.61963 119.25-113.06982 167.71002-48.45996 48.44995-104.87988 86.48999-167.70996 113.06995-65.04004 27.51001-134.14014 41.46002-205.36035 41.46002-71.22949 0-140.31982-13.95001-205.36963-41.46002-62.81982-26.57996-119.25-64.62-167.7002-113.06995-48.44971-48.46002-86.5-104.88-113.06982-167.71002-27.51025-65.03998-41.45996-134.13-41.45996-205.35999s13.94971-140.32001 41.45996-205.37c20.16992-47.69 46.9502-91.69 79.88965-131.32001.93018-1.13 1.88037-2.26001 2.84033-3.39001 2-2.38 4.02002-4.72998 6.08008-7.07001 0 0 .00977 0 .00977-.01001 1.93994-2.21997 3.91016-4.42999 5.91016-6.63 5.93018-6.56 12.0498-12.98999 18.33984-19.27997.58008-.58002 1.16016-1.15002 1.74023-1.72003 2.1499-2.13995 4.31982-4.25 6.5-6.32996l.00977-.01001c1.55029-1.5 3.09033-2.96002 4.66016-4.42004.91992-.87 1.8501-1.72998 2.77979-2.57996.20996-.20001.41992-.40002.62988-.57001.90039-.85004 1.80029-1.66998 2.7002-2.47998 44-39.91003 93.91016-71.80005 148.68018-94.96002 65.0498-27.51001 134.14014-41.46008 205.36963-41.46008 71.22021 0 140.32031 13.95007 205.36035 41.46008 62.83008 26.57001 119.25 64.62 167.70996 113.07001 37.21973 37.21997 68.2998 79.14996 92.74023 125.07001.31982.58997.63965 1.16998.93945 1.76001.32031.58997.63037 1.18994.94043 1.78998 6.65967 12.72998 12.80957 25.76001 18.44971 39.08002 1.97998 4.69 3.8999 9.40997 5.74023 14.13995.23975.61005.47998 1.23004.71973 1.85004 4.57031 11.88 8.7002 23.89001 12.38037 36.01996.25.79004.47998 1.58002.70996 2.36005.23975.77997.47998 1.57001.69971 2.34998 14.09033 48 21.20996 97.78003 21.20996 148.65002 0 71.22998-13.94971 140.32001-41.45996 205.35999z" fill="#83ccb1"/><path d="m1397.95085 543.70051c0 17.17999-.98975 34.13-2.91992 50.79999-1.75977 15.23999-4.30957 30.25-7.59961 44.96997l-.48047 2.16003c-1.25 5.44-2.58984 10.83997-4.02979 16.20001-.3999 1.45996-.7998 2.91998-1.22021 4.37-2.75977 9.88-5.86963 19.60999-9.30957 29.19-47.87988 133.53998-158.8501 237.02997-296.97998 274.54999-36.63037 9.95001-75.18018 15.26001-114.96045 15.26001-2.61963 0-5.22949-.02002-7.82959-.08002-156.02002-2.72998-292.12012-87.13-367.37012-212.28003-4.35986-7.23999-8.51025-14.62-12.43994-22.12994-.51025-.96002-1.02002-1.93005-1.51025-2.90002-1.10986-2.15002-2.19971-4.31-3.27002-6.47998-3.3999-6.87-6.61963-13.84003-9.6499-20.91003-.95996-2.20001-1.89014-4.40997-2.7998-6.63-6.1499-14.96997-11.49023-30.35999-15.97021-46.10999-3.16992-11.13-5.91016-22.44-8.18994-33.90997-5.56006-27.83002-8.47021-56.61005-8.47021-86.07001v-.37c.14014-172.98004 100.68018-322.48004 246.5-393.34003 21.73047-10.57001 44.46045-19.38 68.02051-26.26001 2.27979-.66998 4.55957-1.32001 6.85986-1.95001 22.5-6.17999 45.72998-10.60999 69.52979-13.12 15.31006-1.63 30.8501-2.45996 46.58984-2.45996 241.62012 0 437.5 195.88 437.5 437.5z" fill="#83ccb1"/><path d="m918.58884 772.76977s-4.53715 46.21288 27.3231 26.17071c31.84751-20.06418-12.86614-38.73351-12.86614-38.73351z" fill="#f59120"/><path d="m917.46462 780.2291s-64.04287 8.98264-50.54309 58.2236c13.49513 49.24306-15.96177 31.13703-15.96177 31.13703s89.91703 45.24288 84.58817-76.83802l-18.08331-12.52262z" fill="#83ccb1"/><path d="m947.87022 765.59919s39.38747-51.68125 75.18989-15.52825c35.80298 36.15988 34.73943 1.40352 34.73943 1.40352s-5.41063 101.14431-108.06536 36.16382l-1.86395-22.03909z" fill="#f59120"/><path d="m835.13336 808.36413c37.91908-3.50091 80.22879-13.14559 126.07764-32.39626l-8.35598-19.89708c-204.39889 85.82449-336.13337-26.70196-337.4403-27.85078l-14.23699 16.22229c1.45604 1.27744 36.38707 31.52386 98.44393 50.58535 33.85332 10.39789 79.96326 18.46503 135.51169 13.33648z" fill="#fff8ed"/><path d="m665.07766 780.27698c-.50064.41524-.97687.90994-1.45843 1.38568-39.44684-17.30422-61.29688-36.21601-62.44102-37.22023l14.23683-16.22232c.52375.46106 22.0618 18.84954 60.8479 35.16473-3.74966 5.61695-7.47038 11.25275-11.18528 16.89215z" fill="#f2b29c"/><path d="m1133.78048 761.22294c55.78108-1.2432 100.65581-14.51674 133.10162-28.71107 59.4767-26.01764 90.72851-60.05213 92.02929-61.48736l-15.98156-14.50418c-.29354.32265-30.08197 32.55092-85.67499 56.64518-51.16251 22.17407-135.44422 41.82098-246.39384 9.53754l-6.03117 20.72055c47.73905 13.89208 90.88317 18.64776 128.95066 17.79934z" fill="#fff8ed"/><path d="m1314.12118 680.87668c18.76432-13.55313 28.64108-24.17181 28.80892-24.35619l15.98073 14.50406c-.70171.77492-10.18622 11.05992-28.10534 24.4512-5.53473-4.89553-11.09624-9.76159-16.68432-14.59907z" fill="#f2b29c"/><path d="m1351.28261 677.29925c10.20384 8.17273 28.17603 22.11293 42.12404 16.27539 26.93413-11.18942-16.21067-34.21927-28.33564-41.42015 17.03587 5.60883 34.22602 10.99333 51.96014 13.92272 9.45692 1.56213 19.19909 3.1588 28.79901 2.04282 6.95525-.80854 23.30868-4.51083 22.06613-14.45826-1.23359-9.87571-20.31442-14.05529-28.14235-15.79007-21.99267-4.87387-47.54424-1.06189-66.99293 10.39644 14.70094-8.62743 29.2098-17.60768 43.1573-27.4162 8.84325-6.21898 17.55845-12.73527 25.51857-20.06993 6.1464-5.66346 15.61909-13.7414 16.10145-22.91058 1.35482-25.87538-45.22029 4.8693-52.52381 9.65943-28.62713 18.77559-45.31217 39.33804-65.50663 66.63726l-1.43181 1.93554c-13.59712-10.09284-55.86122-43.26131-72.61284-26.31288-21.04705 22.75506 53.93944 44.23328 71.75177 38.86567z" fill="#e53e31"/><path d="m1075.41129 965.9405c-36.63037 9.95001-75.18018 15.26001-114.96045 15.26001-2.61963 0-5.22949-.02002-7.82959-.08002l-17.22021-166.16998-1.16016-11.13-1.32959-12.90002-.41016-3.95996-.5-4.81006-.97998-9.41998-.81006-7.84998-.20996-2.02002-6.16992-59.48999 11.41992-1.21002 115.62012-12.28998 3.8501 43.26001 1.97949 22.27997v.04004l.26025 2.94v.02997l18.4502 207.52002z" fill="#fff8ed"/><path d="m1017.51253 879.26568 3.67608-.15763-8.24363-58.0488-3.67608.15764z" fill="#999690"/><path d="m841.31457 666.2749s53.33755 117.6793 170.31691 164.22286c0 0 45.44502-24.94124 40.76348-80.59421-4.67571-55.64773-1.78617-3.67169-1.78617-3.67169l-209.29422-79.95695z" fill="#f2b29c"/><path d="m1275.16129 472.54048s-19.33008-52.32996-83.4502-74.14996c0 0 23.12012-6.12 30.97998-3.10004 0 0-26.75-23.48999-69.75977-26.59998l-28.89014-68.14001 32.18994 1.62s-4.78027-11.07001-37.58984-19.38c10.43994-43.89001-18.5-112.29999-18.5-112.29999-75.27002 11.51001-105.07031 48.78003-116.66016 73.14001-2.96973 6.21997-4.74023 11.59998-5.78027 15.48999-11.7998 1.29999-43.95996 6.33002-75.28955 24.40002 6.69971-7.52002 17.02979-17.23004 29.22998-22.26001 0 0-59.97021 3.46997-98.90039 61.46997-.08984.13-.17969.25-.25977.38 0 0-.35986-.13-1.06006-.37-.44971-.15002-1.04004-.34998-1.77002-.58002-3.06006-.98999-8.5-2.65997-15.7998-4.48999-.08984-.02997-.18018-.04999-.27002-.07001-34.77002-8.72998-110.88037-21.21997-171.64014 15.67999 0 0 3.5498 46.39001 90.91016 140.36005 0 0-50.55029 56.57996-52.76025 108.82001 0 0 22.1499-52.31006 39.72021-67.22003 0 0-57.3501 107.40997-5.95996 164.92999 0 0-8.9502-35.96997-2.56006-53.32001 2.40967 13.17004 21.12988 105.62 75.87012 139.22003 0 0-24.02002-40.54999-28.39014-60.44 0 0 26.56006 58.92999 115.14014 75.16998 8.66992 1.59003 17.93994 2.77002 27.83984 3.44h.01025c5.44971.38 11.07959.59998 16.91992.64001.23975.01001.47998.01001.71973.01001 0 0-.25-.05005-.73975-.17999-1.39014-.33002-4.68018-1.19-9.27002-2.77002-4.04004-1.40002-9.09033-3.35004-14.74023-5.98999-9.60986-4.5-20.93994-11-31.95996-20.16003 9.22998 5.17004 27.12988 11.19 50.5498 14.79999 2.2002.34003 4.45996.66003 6.76025.95001.01025.01001.02002.01001.02979.01001h.01025c3.56006.46002 7.20996.84998 10.97998 1.17999 5.62988.5 11.49023.84003 17.54004 1 1.47998.03003 2.96973.06 4.47998.07001 2.39014.03003 4.81006.02002 7.25-.01001 23.72998-.34998 49.93018-3.63 76.83984-11.66998 5.16992-1.53998 10.37012-3.26001 15.59033-5.17999 1.31982-.47998 2.6499-.97003 3.97949-1.48999.03027-.01001.06055-.02002.08008-.03003.22021-.08002.44043-.15997.65039-.25l.1499-.06c11.77979-4.57001 23.60986-10.12 35.3501-16.79999 9.22998-5.23999 18.3999-11.19 27.44971-17.90002 1.83008-1.26996 4.08008-2.94 6.64014-5.08997.31006-.23999.62012-.48004.92969-.72003l-.05957-.01001c.7998-.67999 1.60986-1.38995 2.45996-2.14996 12.31982-11.13 29.59961-31.53003 41.0498-65.07001 0 0-.0498 35.67999-4.25 42.02997 0 0 38.41016-39.06 40.2002-79.81995 0 0 1.91016 35.85999.17969 43.29999 0 0 39.91016-52.91998 42.20996-112.98004 0 0 4.39014 20.30005 2.91016 24.64001 0 0 47.74023-36.81-2.79004-101.98999 0 0 13.77002-1.22998 25.30029 9.98999zm-563.14014 152.54004c.2998-.65002.62988-1.27002.99023-1.84003 0 0 .05957.57001.19971 1.64001-.47021.08002-.87012.14996-1.18994.20001z" fill="#e53e31"/><path d="m981.90253 680.07805c47.36313-4.37284 85.82928-24.80323 86.39134-25.1073 1.0294-.55651 1.41501-1.84273.85679-2.87197-.55821-1.02924-1.85508-1.40014-2.86856-.85711-.81397.43712-81.87985 43.46196-152.53732 16.64439-38.26903-14.5226-66.76662-46.77315-84.70338-95.85698-.39963-1.09535-1.61883-1.66556-2.71386-1.26253-1.09859.40164-1.66556 1.61883-1.26221 2.71726 18.37847 50.30052 47.71936 83.39787 87.2 98.3713 23.1713 8.78682 47.38449 10.27742 69.6372 8.22292z" fill="#fff"/><path d="m1092.99807 502.38745c-30.25215 19.87338 49.95186 27.90006 49.95186 27.90006s12.65401-26.43471 13.39299-47.79221c.7339-21.36633-33.09902.01476-63.34485 19.89215z" fill="#fff"/><path d="m792.13194 354.17738s-71.57928-29.34088-112.61987-3.76944c0 0 28.5221 57.87686 65.57809 77.29536 0 0 17.91062-44.87197 47.04178-73.52592z" fill="#fff"/><path d="m1080.37689 202.0803c-53.32478 14.67696-77.31594 61.80964-68.46308 63.17711 20.52037 3.16947 77.22167 31.15396 77.22167 31.15396 18.94905-30.47496-8.75859-94.33108-8.75859-94.33108z" fill="#fff"/><path d="m1062.48829 440.44117c-16.96568-47.92717-73.76486-105.89329-113.56195-91.88691-39.79761 14.00702-47.52274 94.68374-30.56075 142.61481 16.964 47.92797 62.9767 75.42393 102.77529 61.41504 39.79406-14.00723 58.30734-64.21458 41.34741-112.14294z" fill="#fff"/><path d="m793.02559 592.20301s16.54037-68.76428 69.4716-23.83001c0 0-47.00086-25.53387-69.4716 23.83001z" fill="#fff"/><path d="m609.47413 749.80549c-9.2047 9.2836-25.46896 25.18337-39.99194 20.97542-28.03494-8.04319 12.20042-35.84542 23.42458-44.38272-16.28465 7.51598-32.74818 14.82669-50.03223 19.7604-9.21693 2.63096-18.71329 5.32877-28.37785 5.31542-7.00208-.00967-23.67114-1.82187-23.5717-11.84612.09873-9.95197 18.57806-16.28136 26.15693-18.89797 21.29294-7.35138 47.11259-6.47971 67.74165 2.68471-15.58931-6.89372-31.02807-14.15988-46.00362-22.31295-9.49508-5.16936-18.89687-10.64869-27.64188-17.02721-6.75246-4.92517-17.08497-11.86954-18.61037-20.9238-4.29833-25.55182 45.48055-.3221 53.28292 3.60343 30.58246 15.38664 49.50468 33.91106 72.68208 58.72783l1.6433 1.75953c12.35674-11.57835 50.56033-49.3525 69.13636-34.4261 23.50593 20.20501-48.5402 50.09885-66.84865 46.79866l-12.9896 10.19146z" fill="#e53e31"/><circle cx="1026.89125" cy="838.75881" fill="#999690" r="5.91012"/><circle cx="1028.10317" cy="859.9317" fill="#999690" r="5.91012"/><circle cx="999.18921" cy="843.01943" fill="#999690" r="5.91012"/><circle cx="1000.75094" cy="864.84424" fill="#999690" r="5.91012"/><path d="m733.14959 220.85801c-.30502 2.84766-.30502 5.79968 0 8.6523.10188 1.42134.30564 2.84766.61066 4.27397.20376 1.32195.61066 2.6439.91629 3.97081.4069 1.6251.91567 3.15578 1.62821 4.68149.50878 1.21758 1.01817 2.44014 1.62883 3.66269.81379 1.72947 1.73009 3.35954 2.84952 4.98961.81441 1.21758 1.73071 2.5445 2.64638 3.66269 1.01755 1.32195 2.13761 2.6439 3.35892 3.86645 1.01755 1.11819 2.03573 2.13698 3.15516 3.05141.50878.51188 1.01755.9194 1.62821 1.42631 5.29276 4.47773 10.99242 7.33035 17.60838 8.54793 1.32319.20376 2.64576.40752 3.96895.61128 1.32319.10436 2.64638.20376 4.07145.20376 5.80154.51188 15.06325-.0994 21.57733-4.27397l16.28458 53.5389c4.88587.61128 9.77111.91443 14.75824 1.01382h1.62883c58.72668-.00001 119.79473-37.9638 151.34692-60.86432l.20314-.20376c2.34136-1.6251 4.58023-3.25517 6.51407-4.78088l2.13761-1.63007-36.13182-51.29755-4.68211-6.71411c19.33846-5.19337 40.20325-16.39018 40.8139-39.18633.40689-13.13003-4.88525-27.98952-15.57266-36.13491-10.58491-7.93666-26.97135-10.178-39.69386-7.32537-8.24416 1.93323-21.27231 10.48117-23.71493 19.13347 6.31031-22.39361-3.56207-69.00471-33.79108-68.80094-43.35841.30316-37.55686 59.53738-28.80392 86.51308-5.29215-16.08205-11.29745-33.28228-28.49831-39.90196-18.21841-6.91786-38.47255 3.35955-47.633 19.74475-10.78866 19.34219-1.2213 38.67941 15.67392 50.69125-26.46257-6.71907-46.81859 7.63352-53.94331 27.47765-.4069.9194-.71253 1.83383-.91567 2.85263-.30564 1.11819-.61066 2.23638-.81441 3.35457-.30564 1.42631-.50878 2.85263-.71253 4.17457 0 .30812-.10188.71564-.10188 1.01879z" fill="#fff8ed"/><path d="m929.99254 193.98664c.91567 1.22255 9.66923 12.11123 25.5469 9.97424l-4.68211-6.71411s-13.02815 3.35457-20.86479-3.26014z" fill="#cecac2"/><path d="m733.1496 229.51031c0 1.01383.10188 2.03262.30564 3.05141.10188.40752.10188.81504.30502 1.22255.20376 1.32195.61066 2.6439.91629 3.97081.4069 1.6251.91567 3.15578 1.62821 4.68149.50878 1.21758 1.01817 2.44014 1.62883 3.66269.81379 1.72947 1.73009 3.35954 2.84952 4.98961.81441 1.21758 1.73071 2.5445 2.64638 3.66269 1.01755 1.32195 2.13761 2.6439 3.35892 3.86645 1.01755 1.11819 2.03573 2.13698 3.15516 3.05141.50878.51188 1.01755.9194 1.62821 1.42631 5.089 4.07021 11.0943 7.12659 17.60838 8.54793 1.32319.20376 2.64576.40752 3.96895.61128 1.32319.10436 2.64638.20376 4.07145.20376 5.80154.51188 15.06325-.0994 21.57733-4.27397l15.97956 53.43454c.10188.10436.20376.10436.30502.10436 4.88587.61128 9.77111.91443 14.75824 1.01382l-22.188-68.70155c-53.53642 18.62656-68.09091-29.92273-71.9586-44.57847-.4069.9194-.71253 1.83383-.91567 2.85263-.30564 1.11819-.61066 2.23638-.81441 3.35457-.30564 1.42631-.50878 2.85263-.71253 4.17457 0 .30812-.10188.71564-.10188 1.01879-.4069 2.84766-.4069 5.79968 0 8.6523z" fill="#221f1f" opacity=".2"/><path d="m500.8826 552.09196-.00007.00005c-17.91401 11.38487-29.10215 30.40394-30.76412 51.01814-.58778 7.29054.45004 14.6213 2.30103 21.69741l19.27623 73.69073c12.06061 56.88566 77.69524 58.97233 114.35768 35.67228l5.59386-3.55506c36.66244-23.30004 62.36135-69.78767 18.40875-120.0492l-46.62207-47.56531c-20.49034-20.90489-52.56833-27.23648-78.34832-13.37068-1.42297.76535-2.82497 1.58589-4.20297 2.46165z" fill="#9ca1a6"/><path d="m632.20085 608.6905-46.72949-47.69c-16.79004-17.13-40.51025-24.47003-62.51025-20.54999-6.6499 1.17999-13.14014 3.38995-19.22998 6.66998-1.46973.78998-2.9502 1.65002-4.37988 2.56-18.33984 11.65997-30.33008 31.54999-32.08008 53.20001-.56006 6.95996.21973 14.37 2.39014 22.64996l19.25977 73.63c2.31006 10.88 6.62988 20.28003 12.79004 27.98999 6.2002 7.78003 14.27979 13.83002 24.05029 17.94 3.02979 1.27002 6.17969 2.34003 9.41992 3.20001 6.93994 1.83002 14.2998 2.73004 21.77979 2.73004 2.62012 0 5.26025-.11005 7.8999-.33002 3.14014-.26001 6.27002-.67999 9.39014-1.25 11.77979-2.15002 23.29004-6.47998 33.33008-12.85999l1.11963-.71002 4.48047-2.84998c1.51953-.97003 3.00977-1.96002 4.45996-2.98004l.00977-.01001c8.22998-5.77997 15.33008-12.39996 21.11035-19.58997q.00977-.01001.00977-.02002c8.99023-11.16998 14.77002-23.70996 16.62988-36.59998 3.16016-22-4.63965-43.91003-23.2002-65.13zm17.54004 64.31c-2.70996 18.81-14.57959 36.91998-32.95996 50.60999-2.12988 1.60004-4.35986 3.13-6.66992 4.60004l-5.58984 3.54999c-9.7998 6.22998-21.33984 10.37-33.10986 12.26001-.13037.02997-.27002.04999-.41016.06995-7.83008 1.23004-15.77002 1.46002-23.35986.64001h-.01025c-6.95996-.75-13.61963-2.37-19.6499-4.90997-8.41992-3.53003-15.45996-8.67999-20.96973-15.26001-6.07031-7.22003-10.30029-16.17999-12.52051-26.65002l-19.30957-73.82996c-.08008-.29004-.15039-.59003-.22021-.88-1.83008-7.28003-2.48975-13.79004-2-19.86005 1.60986-19.87994 12.60986-38.13995 29.4502-48.83997 1.31982-.83002 2.66992-1.63 4.02979-2.35999 5.25-2.82001 10.81006-4.77002 16.52002-5.88 19.3999-3.81 40.41016 2.03998 55.93018 16.31.00977 0 .00977.01001.00977.01001.8501.78998 1.68018 1.58997 2.49023 2.41998l46.56982 47.51001c17.37012 19.88995 24.7002 40.23999 21.77979 60.48999z" fill="#d9dacb"/><path d="m573.25265 554.1936c20.97155 23.91943.06773 50.97724-22.84405 65.53834l-3.83233 2.43556c-24.5608 15.6091-72.62986 25.15034-75.92597-13.1493 0 0-4.6112-33.64597 23.46008-52.68658 46.07411-31.25186 79.14227-2.13801 79.14227-2.13801z" fill="#d9dacb"/><circle cx="532.85568" cy="601.86084" fill="#4c4b4c" r="3.46602"/><circle cx="503.12672" cy="596.77465" fill="#4c4b4c" r="3.46602"/><circle cx="542.39257" cy="572.70683" fill="#4c4b4c" r="3.46602"/><circle cx="513.5563" cy="569.22617" fill="#4c4b4c" r="3.46602"/><circle cx="475.97532" cy="249.24584" fill="#fff8ed" r="5.60556"/><circle cx="506.59307" cy="379.36061" fill="#fff8ed" r="5.60556"/><circle cx="522.95085" cy="322.46404" fill="#fff8ed" r="5.60556"/><circle cx="488.3764" cy="454.46382" fill="#fff8ed" r="5.60556"/><circle cx="411.3961" cy="422.31056" fill="#fff8ed" r="5.60556"/><circle cx="350.20889" cy="398.85294" fill="#fff8ed" r="5.60556"/><circle cx="316.33564" cy="338.60842" fill="#fff8ed" r="5.60556"/><circle cx="431.85001" cy="322.73747" fill="#fff8ed" r="5.60556"/><circle cx="384.94357" cy="284.14042" fill="#fff8ed" r="5.60556"/><ellipse cx="993.27829" cy="515.49153" fill="#e53e31" rx="14.44625" ry="27.53848" transform="matrix(.9602857 -.27901859 .27901859 .9602857 -104.38435 297.61541)"/><ellipse cx="1109.99989" cy="445.86027" fill="#fff" rx="14.44625" ry="27.53848" transform="matrix(.9602857 -.27901859 .27901859 .9602857 -80.32043 327.41754)"/><path d="m1654.69303 654.14143c-12.73047 0-24.96094-3.08984-35.95898-9.23926-20.05566-11.21387-33.59082-31.2373-38.1123-56.38184-4.50684-25.06836.48828-52.24609 14.06445-76.52832.48145-.86133 49.51758-88.3418 50.69824-90.21484l1.69141 1.06641c-1.12793 1.78955-50.16211 89.2627-50.64355 90.125-13.35156 23.87891-18.26758 50.58398-13.8418 75.19824 4.41309 24.54395 17.5957 44.07324 37.12012 54.98926 19.51562 10.91309 43.05566 11.91602 66.28418 2.82715 23.30078-9.11719 43.48438-27.28613 56.83203-51.16016.47852-.85547 49.26367-88.41992 50.21777-90.3623l1.79492.88086c-.96387 1.96289-49.78809 89.60156-50.2666 90.45801-13.57422 24.27637-34.11816 42.75977-57.84863 52.0459-10.74219 4.20312-21.55664 6.2959-32.03125 6.2959z" fill="#83ccb1"/><path d="m1661.97953 496.70374h78.11548v2.00039h-78.11548z" fill="#83ccb1" transform="matrix(.48812763 -.87277226 .87277226 .48812763 436.33176 1739.379)"/><path d="m1680.35971 447.28149h2.00063v168.1359h-2.00063z" fill="#83ccb1" transform="matrix(.48802602 -.87282908 .87282908 .48802602 397.03539 1739.57707)"/><path d="m1617.64128 642.79048-.62012 1.11999-239.9502 436.09003h-2.27978l240.52978-437.14001.57032-1.02997z" fill="#83ccb1"/><path d="m266.17741 720.56233-1.15625-1.63184c17.99902-12.75293 29.70605-39.44238 31.31445-71.3916 1.74902-34.70801-8.03223-70.93457-27.54004-102.00684-40.75-64.90234-100.95801-100.41455-140.0498-82.604l-.83008-1.82031c39.99902-18.22656 101.29395 17.61426 142.57324 83.36084 19.72461 31.41699 29.61328 68.05664 27.84473 103.1709-1.63965 32.55664-13.66113 59.81836-32.15625 72.92285z" fill="#83ccb1"/><path d="m452.83122 1080.0005h-2.26026l-325.3999-616.95001 1.77002-.92999z" fill="#83ccb1"/><path d="m1920.00114 709.38051v3.35999c-5.91992 7.96002-11.91016 16.47003-17.83008 25.5-24.58984 37.51001-43.31982 76.56-55.66992 116.08002-15.41992 49.37-20.8501 99.59998-16.16016 149.29999l.12012 1.29999-1.27979-.21997c-46.88037-7.83002-95.3501-4.35004-144.07031 10.34998-39 11.77002-78.23975 30.71997-116.63965 56.31-4.29004 2.85999-8.48047 5.75-12.56006 8.64001h-3.4502c4.80029-3.44 9.76025-6.87 14.85986-10.27002 38.56006-25.71002 77.99023-44.75 117.18018-56.58002 47.97021-14.48999 95.70996-18.14996 141.95996-10.90997.47021.07001.9502.15002 1.41992.22003.12012.01996.22998.03998.3501.06-.00977-.13-.02002-.25-.03027-.38-.03955-.36005-.06982-.72003-.09961-1.08002-4.27002-49.08002 1.27979-98.65002 16.50977-147.38 12.40039-39.69 31.22021-78.91998 55.91992-116.59003 6.47021-9.87 13.02002-19.12 19.47021-27.70996z" fill="#83ccb1"/><path d="m1793.80593 922.25127h1.99979v93.84771h-1.99979z" fill="#83ccb1" transform="matrix(.70710678 -.70710678 .70710678 .70710678 -159.62385 1552.98419)"/><path d="m1805.49381 979.86213h-33.55859v-2h31.55859v-31.55761h2z" fill="#83ccb1"/><path d="m1784.69303 959.06135h-21.25879v-2h19.25879v-19.25781h2z" fill="#83ccb1"/><path d="m367.53092 1080.0005h-3.44971c-4.08008-2.89001-8.27002-5.78003-12.56006-8.64001-38.39014-25.59003-77.64014-44.53998-116.64014-56.31-48.70996-14.70001-97.18018-18.17999-144.06006-10.34998l-1.29004.21997.13037-1.29999c4.68994-49.70001-.75-99.92999-16.17041-149.29999-12.33984-39.52002-31.06982-78.57001-55.65967-116.08002-5.91992-9.02997-11.91016-17.53998-17.83008-25.5v-3.35999c6.44971 8.58997 13 17.83997 19.47021 27.70996 24.69971 37.67004 43.51953 76.90002 55.91992 116.59003 15.22998 48.72998 20.77979 98.29999 16.50977 147.38-.02979.35999-.06006.71997-.1001 1.08002-.00977.13-.02002.25-.02979.38.12012-.02002.22998-.04004.3501-.06.46973-.07001.94971-.15002 1.41992-.22003 46.25-7.23999 93.97998-3.58002 141.94971 10.90997 39.2002 11.83002 78.62012 30.87 117.19043 56.58002 5.09961 3.40002 10.0498 6.83002 14.84961 10.27002z" fill="#83ccb1"/><path d="m78.26981 968.17523h93.8484v1.99979h-93.8484z" fill="#83ccb1" transform="matrix(.70710678 -.70710678 .70710678 .70710678 -648.64182 372.39035)"/><path d="m148.06413 979.86213h-33.55762v-33.55761h2v31.55761h31.55762z" fill="#83ccb1"/><path d="m156.5651 959.06135h-21.25781v-21.25781h2v19.25781h19.25781z" fill="#83ccb1"/><path d="m1322.27116 380.16047-4.66016-7.94995c-.45996-.78003-.5-1.74005-.10986-2.56006l3.91016-8.34998c1.78955-3.81 1.27002-8.21997-1.36035-11.51001-2.62988-3.29999-6.81982-4.77997-10.92969-3.88l-9.01025 1.97003c-.87988.19-1.7998-.06-2.45996-.67999l-6.72998-6.30005c-3.06982-2.87994-7.43018-3.75-11.37988-2.26996-1.97021.73999-3.62988 1.98999-4.8501 3.58002-1.22998 1.59998-2.00977 3.51996-2.20996 5.62l-.81982 8.21997-.09033.95001c-.05957.57001-.29004 1.08997-.6499 1.52002-.20996.25-.47021.45996-.75977.62l-8.07031 4.44995c-3.68994 2.03003-5.85986 5.91003-5.66992 10.12006.18994 4.20996 2.7002 7.87 6.56006 9.56l8.43994 3.69995c.83008.36005 1.43018 1.11005 1.6001 2l1.74023 9.05005c.78955 4.13995 3.80957 7.39996 7.86963 8.51996 2.30029.64001 4.6499.51001 6.78027-.28998 1.62988-.62 3.11963-1.63 4.33984-3l6.12988-6.88c.6001-.67999 1.49023-1.02002 2.39014-.90997l9.1499 1.14996c4.18018.52002 8.22021-1.33002 10.54004-4.84998 2.31982-3.51001 2.43994-7.96002.31006-11.60004z" fill="#fef6b4"/><path d="m1323.94108 379.18049-4.66016-7.95001c-.12988-.22998-.13965-.51001-.02979-.75l3.91992-8.34998c2.1001-4.48999 1.49023-9.67999-1.6001-13.54999-3.09961-3.87-8.02002-5.62-12.85986-4.56l-9 1.96997c-.27002.04999-.54004-.02002-.73975-.20001l-6.73047-6.31c-3.60986-3.39001-8.73975-4.40997-13.37988-2.66998-.00977.01001-.02002.01001-.02979.02002-4.62012 1.73999-7.79004 5.88-8.28027 10.81l-.90967 9.17999c-.03027.26001-.18018.48999-.41992.62l-8.07031 4.45996c-4.33984 2.38-6.88965 6.94-6.66992 11.89001s3.18018 9.27002 7.71973 11.25l8.4502 3.70001c.24023.10999.41992.33002.47021.59998l1.73975 9.05005c.93018 4.85999 4.47998 8.69995 9.26025 10.01996 1.14014.32001 2.2998.47003 3.45996.47003 1.52979 0 3.0498-.27002 4.50977-.82001 1.93994-.72998 3.70996-1.95001 5.10986-3.52002l6.13037-6.89001c.18018-.19995.43994-.29999.69971-.25995l9.15039 1.13995c4.91992.61005 9.66992-1.56995 12.38965-5.69995 2.72998-4.13 2.87012-9.36005.37012-13.65002zm-12.27979 15.51001-9.14014-1.15002c-1.54004-.19-3.07031.39001-4.08984 1.54004l-6.13037 6.88995c-.97998 1.10004-2.21973 1.95001-3.57959 2.47003-1.78027.66998-3.70996.75-5.57031.23999-3.3501-.92999-5.83984-3.62-6.48975-7.02002l-1.74023-9.06c-.29004-1.51001-1.31006-2.77997-2.72021-3.39996l-8.43945-3.70001c-3.18018-1.40002-5.25-4.41998-5.41016-7.88-.16016-3.47003 1.62988-6.65997 4.66992-8.33002l8.08008-4.45996c.1499-.08002.2998-.18005.43994-.28003.60986-.42999 1.10986-1 1.43994-1.65002.28027-.51996.4502-1.09998.50977-1.69995l.91016-9.17999c.3501-3.45001 2.58008-6.36005 5.82031-7.58002.00977 0 .01953 0 .02979-.01001 3.23975-1.21002 6.81982-.48999 9.3501 1.88l6.71973 6.29999c1.12988 1.04999 2.7002 1.48999 4.20996 1.16003l9.01025-1.97003c3.37988-.73999 6.83008.47998 9 3.19 2.15967 2.72003 2.58984 6.34998 1.12012 9.48999l-3.92041 8.35004c-.6499 1.39996-.57959 3.02997.2002 4.35999l4.66016 7.95001c.70996 1.22998 1.12012 2.56 1.21973 3.89996.05029.65002.03027 1.29004-.05957 1.92999-.19043 1.31-.66016 2.58002-1.42041 3.73004-1.90967 2.88995-5.22998 4.41998-8.67969 3.98999z" fill="#f3b67e"/><path d="m1321.7321 386.97151c-46.5791 0-51.08398-29.53955-51.12402-29.83789-.07129-.52979.2998-1.01561.8291-1.08789.5459-.06982 1.01758.29932 1.09082.82861.1582 1.14941 4.39453 28.15967 49.2041 28.15967.53516 0 .96875.43359.96875.96875s-.43359.96875-.96875.96875z" fill="#f3b67e"/><path d="m1367.28092 270.53047-2.15967-1.13995-.47021-.24005c-.16016-.08997-.29004-.21997-.37012-.37994-.0498-.09003-.08984-.19-.09961-.30005l-.3501-2.94995c-.16016-1.35004-1.05029-2.47003-2.33008-2.92004-.39014-.13995-.79004-.20001-1.18994-.20001-.8999 0-1.79004.35004-2.47021 1l-2.11963 2.08002c-.20996.20001-.51025.29004-.79004.23004l-2.91992-.57001c-1.33008-.26001-2.67041.23999-3.5 1.32001-.82031 1.07996-.96045 2.5-.36035 3.71997l1.31006 2.65997c.04004.10004.08008.19.08984.30005.02002.17999-.00977.35999-.10986.52997l-.25.46002-1.18994 2.13c-.66992 1.19-.6001 2.62.16992 3.73999.43018.63 1.04004 1.08997 1.72998 1.33002.53027.19 1.11035.25 1.7002.15997l2.92969-.42999c.29004-.03998.59033.06.78027.27997l2.02002 2.18005c.91992.98999 2.31006 1.37 3.60986.98999 1.2998-.39001 2.25-1.46002 2.47998-2.79999l.5-2.93005c.05029-.28998.24023-.52997.5-.64996l2.7002-1.25h.00977c1.22021-.58002 2.01025-1.77002 2.04004-3.12.04004-1.36005-.68994-2.60004-1.89014-3.23004z" fill="#fef6b4"/><path d="m1367.78092 269.59047-2.5498-1.33997-.33984-2.85999c-.20996-1.75-1.37988-3.20001-3.04004-3.79004-1.66992-.58997-3.47998-.19-4.75 1.04004l-2.06006 2.00995-2.81982-.54999c-1.73047-.34998-3.48047.31-4.55029 1.71002s-1.25977 3.26001-.47021 4.83997l1.27051 2.58002-1.40039 2.51001c-.85986 1.53998-.77979 3.40002.22021 4.85999.56006.81 1.33984 1.41003 2.25977 1.73004.7002.25 1.4502.31995 2.2002.20996l2.8501-.40997 1.94971 2.10999c.89014.96002 2.11035 1.47998 3.37012 1.47998.43994 0 .87988-.06 1.31982-.19 1.69043-.5 2.93018-1.89996 3.23047-3.63995l.47949-2.84003 2.62012-1.20001c1.6001-.73999 2.62012-2.29999 2.66992-4.07001.04004-1.75995-.8999-3.37-2.45996-4.19zm-1.09961 6.33002-2.7002 1.23999c-.58984.27002-1 .81-1.10986 1.44l-.5 2.92999c-.16016.94-.82031 1.69-1.72998 1.96002-.91992.27002-1.87988 0-2.53027-.69l-2.02002-2.17999c-.36963-.40997-.89014-.63-1.41992-.63-.1001 0-.18994.01001-.29004.02002l-2.93994.42999c-.3999.06-.81006.02002-1.17969-.10999-.5-.18005-.91016-.5-1.21045-.94-.53955-.78003-.58984-1.78003-.12988-2.61005l1.43018-2.56995.02002-.03003c.17969-.32001.25977-.66998.25-1.02002-.01025-.26996-.08008-.53998-.2002-.78998l-1.31982-2.65997c-.41992-.85004-.32031-1.85004.25977-2.61005.57031-.75 1.52002-1.09998 2.4502-.91998l2.91016.58002c.63965.12 1.27979-.07001 1.73975-.52002l2.12988-2.07001c.68018-.66998 1.66016-.88 2.55029-.57001.8999.32001 1.52002 1.10004 1.63965 2.04999l.3501 2.95001c.05029.39001.20996.73999.4502 1.03003.16992.19.35986.33997.58008.45996l.2998.16003 2.33008 1.21997c.83984.45001 1.3501 1.31 1.31982 2.26001-.02002.95001-.56982 1.79004-1.42969 2.19z" fill="#f3b67e"/><path d="m1350.75651 274.21858c-.42969 0-.87109-.00586-1.32617-.01904-.29395-.0083-.52539-.25293-.5166-.54639.00781-.29346.23926-.54688.5459-.51611 12.12695.34375 14.69824-4.18848 14.72363-4.23389.13672-.25732.45703-.35645.7168-.21973.25781.13623.35938.45264.22559.71191-.10547.20361-2.63281 4.82324-14.36914 4.82324z" fill="#f3b67e"/><path d="m1509.18123 296.47448c-28.92963-19.53057-67.15298-15.25632-91.95977 9.29953-18.45497 18.26829-.1135 22.22775 21.69859 33.53128 5.92093 3.06837 6.34216 11.39663.74842 15.02738l-19.96233 12.95701c-4.32056 2.80436-8.06049 6.58032-10.18502 11.27265-4.38847 9.69258-2.85855 21.48616 4.81288 29.79553s19.30552 10.77452 29.31708 7.17263c4.84675-1.74373 8.9088-5.17077 12.04864-9.25402l13.50198-17.55888c4.06137-5.28167 12.305-4.20224 14.90803 1.93086 9.53007 22.45416 14.50935 39.87076 34.59615 21.32611 34.0862-31.46926 31.62006-87.72304-9.52464-115.50009z" fill="#9683b9"/><path d="m1544.111 352.24049c-1.75977-23.16998-14.08984-44.09998-33.81982-57.41998-14.31982-9.66003-31.66992-14-48.84033-12.21002-11.91992 1.23999-23.43945 5.39001-33.50977 11.96002-.56982.37-1.12988.75-1.67969 1.13-3.71045 2.56-7.21045 5.44995-10.44043 8.65997-6.25977 6.19-8.80957 11.19-8.0498 15.73999 1.16992 6.92999 9.81006 11.07001 20.75 16.31 3.06006 1.46002 6.20996 2.97003 9.47998 4.66003 2.1499 1.12 3.5 3.22998 3.62012 5.64996.11963 2.41003-1.02002 4.63-3.04004 5.94l-19.95996 12.96002c-5.03027 3.26001-8.80029 7.45001-10.91016 12.12-4.87012 10.75-2.83984 23.29999 5.16016 31.97003 8 8.66998 20.3501 11.68994 31.44971 7.68994 4.82031-1.72998 9.30029-5.15997 12.95996-9.90997l9.56006-12.44 1.51025-1.96002 2.42969-3.15997c1.45996-1.90002 3.76025-2.85999 6.15039-2.56 2.3999.31 4.3999 1.83002 5.34961 4.06.70996 1.69 1.40039 3.34998 2.08008 4.96002 5.43994 13.07996 9.74023 23.40997 17.68994 25.14996.76025.16003 1.54004.25 2.34033.25 4.5 0 9.5498-2.70996 15.66992-8.34998 17.04004-15.73999 25.81006-38.04999 24.0498-61.20001zm-9.2998 33.41998c-.36035.87-.74023 1.73004-1.1499 2.59003-3.87012 8.27997-9.36035 15.84998-16.31006 22.26001-6.06006 5.59998-10.79004 7.94-14.4502 7.13995-5.91992-1.29999-10.06982-11.25995-14.87012-22.78998-.66992-1.62-1.36963-3.28998-2.08984-4.98999-1.5-3.54999-4.67969-5.96002-8.50977-6.45001-.45996-.06-.93018-.08002-1.39014-.08002-3.29004 0-6.37012 1.5-8.41992 4.16003l-.68994.89996-1.5 1.94-11.31006 14.72003c-3.18994 4.15002-7.04004 7.12-11.14014 8.59998-9.6001 3.45001-20.27002.84003-27.18018-6.64996-6.91992-7.5-8.66992-18.34003-4.46973-27.63 1.7998-3.97003 5.06982-7.57001 9.45996-10.41998l8.50977-5.53003 10.18994-6.60999.01025-.01001 1.25-.81c3.22998-2.09003 5.04004-5.63 4.8501-9.47998-.18994-3.85004-2.33984-7.21002-5.77002-8.98004-3.31982-1.72998-6.5-3.25-9.59033-4.72998-9.88965-4.73999-17.71973-8.47998-18.54004-13.38-.51953-3.10999 1.74023-7.10999 6.92041-12.23999 2.95996-2.92999 6.1499-5.58002 9.52002-7.94.5498-.39001 1.10986-.77002 1.66992-1.14001 9.62012-6.33997 20.63965-10.34998 32.0498-11.53998 16.25-1.69 32.66016 2.40997 46.20996 11.54999 18.70996 12.64001 30.40039 32.46997 32.07031 54.41998.87012 11.52002-1.01025 22.83002-5.33008 33.12z" fill="#c9bddd"/><path d="m1534.19694 389.77522c-6.15918-18.0376-16.67285-30.08496-31.25098-35.80859-31.90918-12.52734-73.18555 9.33105-73.59961 9.55322l-.94336-1.75391c.4209-.22656 42.49512-22.51709 75.26465-9.65576 15.15039 5.94629 26.05566 18.40234 32.41406 37.02148l-1.88477.64355z" fill="#c9bddd"/><g fill="#83ccb1"><path d="m1781.81217 42.83577h1.91602v31.3667h-1.91602z"/><path d="m1781.81217 140.20344h1.91602v31.3667h-1.91602z"/><path d="m1815.77116 106.24495h31.36621v1.91602h-31.36621z"/><path d="m1718.40299 106.24495h31.36621v1.91602h-31.36621z"/><path d="m1730.41471 219.51155h1.91602v15.68359h-1.91602z"/><path d="m1730.41471 268.19563h1.91602v15.68311h-1.91602z"/><path d="m1747.87272 250.73713h15.68359v1.91602h-15.68359z"/><path d="m1699.18913 250.73713h15.68262v1.91602h-15.68262z"/><path d="m1615.1862 144.00569h1.91602v11.86182h-1.91602z"/><path d="m1615.1862 180.82747h1.91602v11.86182h-1.91602z"/><path d="m1628.62467 167.38948h11.86133v1.91602h-11.86133z"/><path d="m1591.80241 167.38948h11.8623v1.91602h-11.8623z"/><path d="m136.27213 42.83577h1.91602v31.3667h-1.91602z"/><path d="m136.27213 140.20344h1.91602v31.3667h-1.91602z"/><path d="m72.86295 106.24495h31.36621v1.91602h-31.36621z"/><path d="m170.23014 106.24495h31.36719v1.91602h-31.36719z"/><path d="m187.6696 219.51155h1.91602v15.68359h-1.91602z"/><path d="m187.6696 268.19563h1.91602v15.68311h-1.91602z"/><path d="m156.44401 250.73713h15.68359v1.91602h-15.68359z"/><path d="m205.1276 250.73713h15.68359v1.91602h-15.68359z"/><path d="m302.89811 144.00569h1.91602v11.86182h-1.91602z"/><path d="m302.89811 180.82747h1.91602v11.86182h-1.91602z"/><path d="m279.51335 167.38948h11.8623v1.91602h-11.8623z"/><path d="m316.33561 167.38948h11.8623v1.91602h-11.8623z"/></g><path d="m539.18559 146.51473h23.72817c22.38589 0 40.56039 18.1745 40.56039 40.56039v23.72817h-23.72817c-22.38589 0-40.56039-18.1745-40.56039-40.56039z" fill="#c0e2c6" transform="matrix(-.29437911 .95568872 -.95568872 -.29437911 910.25986 -314.76101)"/><path d="m609.12126 156.66047-5.42041-1.65997-2.20996-.67999-12.65967-3.90002c-.43994-.14001-.88037-.26001-1.31006-.38-.10986-.02997-.20996-.04999-.32031-.07996-.07959-.02002-.16992-.05005-.25-.07001-.36963-.10004-.72949-.19-1.09961-.27002-.54004-.12-1.08008-.22998-1.62012-.33002-.29004-.06-.58984-.10999-.87988-.14996-.5-.08002-.99023-.15002-1.49023-.21002-.31006-.03998-.62988-.08002-.94971-.10999-.01025 0-.03027-.01001-.04004 0-.34033-.04004-.68018-.07001-1.02002-.10004-.5-.03998-1-.06-1.49023-.07996-.5-.02002-.98975-.03003-1.47998-.03003h-.02002c-.44971 0-.8999.01001-1.34961.03003-.13037 0-.27051 0-.40039.00995h-.0498c-.47021.02002-.9502.05005-1.41992.09003-.44043.03998-.87012.08002-1.30029.13-.20996.02002-.42969.04999-.64014.08002-.41992.04999-.82959.10999-1.25.17999-.42969.07001-.85986.14001-1.28955.22998-.03027.01001-.07031.01001-.1001.02002-.08984.01001-.18018.02997-.27002.04999-.43994.09003-.89014.19-1.33008.29999-.1499.03003-.2998.07001-.44971.10999-.41016.10004-.82031.21002-1.23047.33002-.43994.12-.87988.26001-1.31982.40002-.1001.02997-.19971.06-.2998.09998-.47021.15002-.93018.32001-1.39014.48999-.56006.21002-1.10986.42999-1.66016.66003-.00977.01001-.02979.01001-.04004.01996-.37988.15002-.75.32001-1.12012.49005-.1499.06995-.30957.14996-.45996.21997-.29004.14001-.56982.28003-.85986.41998-.20996.11005-.41992.22003-.62988.33002-.08984.03998-.16992.08002-.26025.14001-.21973.10999-.44971.22998-.66992.35999-.20996.10999-.40967.22998-.62012.35999-.00977 0-.02979.01001-.03955.02002-.06006.03003-.12012.06-.17041.09998-.34961.20001-.69971.41003-1.04004.64001-.20996.12-.41992.25-.61963.39001-.31006.20001-.6001.40002-.8999.62-.16016.09998-.31006.21002-.45996.32001-.44043.31-.88037.64001-1.31006.97998-.11035.08002-.21045.16998-.32031.25-.35986.28003-.71973.58002-1.06982.88-.7998.69-1.58008 1.41003-2.33984 2.16003-.38037.37994-.75.75995-1.11035 1.15997-.35986.39001-.71973.78998-1.05957 1.20001-.25.28998-.5.58997-.73047.89001-.09961.12-.19971.23999-.29004.35999-.66992.83997-1.2998 1.71997-1.8999 2.62-.2998.45001-.58984.90997-.86963 1.38-.57031.92999-1.1001 1.89001-1.59033 2.88-.5.97998-.94971 2-1.36963 3.03998-.42041 1.03998-.79004 2.09998-1.13037 3.19l-6.08008 19.75-.8501 2.77002-.0498.15997.2002.06 2.92969.90002c.01025.01001.02002.01001.03027 0l9.25 2.85999 8.56006 2.64001 1.69971.51996c.12988.04004.25.08002.37988.11005.87012.26001 1.74023.48999 2.61035.69.5.12 1 .21997 1.5.31.27002.04999.54004.09998.81006.13995.16992.04004.3501.07001.52979.09003.12012.02002.22998.03003.3501.04999.43018.07001.87012.12 1.2998.17004.5.06 1 .09998 1.5.13995.99023.07001 1.99023.11005 2.97998.11005.45996 0 .91992-.01001 1.38037-.03003.12988 0 .25977 0 .37988-.01001h.06006c.46973-.02002.93994-.04999 1.41016-.08997.43945-.04004.87988-.08002 1.30957-.13.01025 0 .02002 0 .04004-.01001.16992-.01001.33984-.03003.51025-.06h.02002c.43994-.04999.87988-.12 1.30957-.19.51025-.08002 1.02051-.16998 1.52051-.27002l.1499-.02997c.48975-.10004.97998-.21002 1.45996-.33002.52002-.12 1.02979-.26001 1.54004-.41003.44971-.12.89014-.25995 1.32959-.39996.1001-.03003.2002-.06.30029-.10004.47021-.14996.93018-.31995 1.39014-.48999.55957-.20996 1.10986-.42999 1.65967-.65997.01025-.01001.03027-.01001.04004-.02002.37012-.14996.75-.32001 1.12012-.48999.1499-.07001.31006-.15002.45996-.21997h.01025c.5-.24005.98975-.48004 1.47998-.74005.08984-.04999.16992-.08997.25977-.14996.41992-.21002.84033-.45001 1.25-.70001.02979-.02002.06982-.03998.1001-.06.25-.13.49023-.28003.72998-.42999.08984-.04999.18018-.10999.27002-.16998.27979-.17004.56006-.35004.83984-.53003.30029-.19.58008-.39001.87012-.59998.16016-.10004.31006-.21002.45996-.32001.43994-.31.87988-.64001 1.31006-.98004.10986-.07996.20996-.16998.31982-.25.36035-.27997.72021-.57996 1.07031-.87994.7998-.69 1.58008-1.41003 2.33984-2.16003.37988-.38.75-.76001 1.10986-1.15997.35986-.39001.72021-.79004 1.06006-1.20001.25-.29004.5-.59003.72998-.89001.1001-.12.2002-.23999.29004-.35999.66992-.84003 1.30029-1.72003 1.8999-2.62.30029-.45001.59033-.91003.87012-1.38.57031-.92999 1.1001-1.89001 1.58984-2.88.5-.97998.9502-2 1.37012-3.03998.41992-1.04004.79004-2.10004 1.12988-3.19l5.43018-17.64001 1.1499-3.72998.40039-1.31006-2.39014-.73999zm-5.80029 13.65002-2.63965 8.58002c-4.75 15.42999-18.78027 25.79999-34.90039 25.79999-2.93994 0-5.86963-.35999-8.73975-1.07001-.68018-.16998-1.35986-.34998-2.02979-.56l-.09033-.03003-8.70996-2.67999-10.04004-3.08997.10986-.36005 5.7002-18.47998c4.75-15.41998 18.77002-25.78998 34.8999-25.78998 3.64014 0 7.26025.54999 10.77002 1.63l10.43994 3.21997 2.2002.66998 3.54004 1.10004c.00977-.01001.00977 0 .00977 0l2.64014.81-3.16016 10.23999c.01025.01001 0 .01001 0 .01001z" fill="#83ccb1"/><path d="m536.9694 200.94954c-2.56055 0-4.06934-.15674-4.2373-.1748-1.10352-.12158-1.90039-1.11475-1.7793-2.21875.12012-1.10449 1.125-1.89453 2.21582-1.78027.41699.0459 39.68555 3.7793 70.62695-33.07178-9.85352 4.29297-27.49414 10.28223-44.78906 7.66016-1.09766-.16699-1.85352-1.19189-1.68652-2.29053.16602-1.09814 1.19336-1.85107 2.29004-1.68701 24.00684 3.64209 49.81445-10.88379 50.07324-11.03076.81836-.46875 1.85645-.30176 2.49023.39941.63281.70166.69238 1.74951.14258 2.51807-17.2041 24.03223-37.87402 34.04004-52.18359 38.20361-10.0957 2.93701-18.42676 3.47266-23.16309 3.47266z" fill="#83ccb1"/><path d="m499.35259 75.70631h23.72817c22.38589 0 40.56039 18.1745 40.56039 40.56039v23.72817h-23.72817c-22.38589 0-40.56039-18.1745-40.56039-40.56039z" fill="#c0e2c6" transform="matrix(-.9972634 -.07393043 .07393043 -.9972634 1053.56579 254.69987)"/><path d="m554.73112 87.83052c-7.43018-8.62-17.75977-13.82001-29.1001-14.66003l-25.66992-1.90997-1.8999 25.66998c-1.37988 18.56 9.41992 35.27002 25.62012 42.25h.00977c4.22998 1.83002 8.82031 2.98999 13.66992 3.34998l25.66992 1.91003.01025-.13.22021-2.97003.00977-.12 1.66992-22.44995c.83984-11.34003-2.79004-22.33002-10.20996-30.94zm-52.66016 9.39996 1.05029-14.22998.5498-7.42999 1.8501.14001 19.81006 1.46997c10.27002.76001 19.62988 5.46997 26.3501 13.27002 6.71973 7.79999 10.00977 17.75 9.23975 28.01996l-1.37988 18.73004-.22021 2.92999-6.83984-.51001-14.81982-1.09998c-21.2002-1.57001-37.16016-20.09003-35.59033-41.29004z" fill="#83ccb1"/><path d="m568.02409 146.3929-8.72363-3.65234c-27.26367-11.41357-41.57422-29.2373-48.7793-42.18018-7.83301-14.07178-9.17383-25.33496-9.22754-25.80762l3.99707-.45264c.04785.41162 4.98926 39.13184 47.65723 61.05615-6.31836-8.48877-15.80176-23.87891-17.08691-41.14502l4.01172-.29883c1.80371 24.23633 21.46973 45.3833 21.66895 45.59375l6.48242 6.88672z" fill="#83ccb1"/><path d="m707.6403 244.0677c-28.43555-51.06396-78.87988-86.69336-138.39844-97.75293-46.875-8.70947-91.13477-.33154-118.39844 22.4126l-2.57617-3.08887c28.17188-23.50146 73.67285-32.20459 121.70898-23.27832 60.70117 11.27881 112.1582 47.63672 141.17773 99.75049l-3.51367 1.95703z" fill="#83ccb1"/></svg>